<svg width="41" height="57" viewBox="0 0 41 57" fill="none" xmlns="http://www.w3.org/2000/svg">
<path fill-rule="evenodd" clip-rule="evenodd" d="M0 8.1051C0 15.9136 3.1657 22.9937 8.2712 28.1049C3.1657 33.2161 0 40.2966 0 48.105C0 50.0739 0.2021 51.989 0.5793 53.85C4.0414 55.3605 7.8672 56.2101 11.8951 56.2101C25.4057 56.2101 36.694 46.7308 39.4835 34.0417C39.5061 34.0318 39.5287 34.0219 39.5512 34.012C39.9284 32.1509 40.1305 30.2359 40.1305 28.2669C40.1305 26.1679 39.9025 24.136 39.4733 22.1711H39.4841C36.6956 9.4807 25.4067 0 11.8951 0C7.8672 0 4.0414 0.8361 0.5793 2.3601C0.2021 4.2211 0 6.1362 0 8.1051Z" fill="url(#paint0_linear_283_7131)"/>
<path d="M39.5512 34.0118C39.9284 32.1507 40.1304 30.2357 40.1304 28.2667C40.1304 26.1629 39.9014 24.1265 39.4703 22.1575C36.0217 20.6605 32.2228 19.8379 28.2353 19.8379C20.4355 19.8379 13.3766 22.9936 8.271 28.1049C13.3766 33.2161 20.4355 36.3719 28.2353 36.3719C32.2632 36.3719 36.0891 35.5357 39.5512 34.0118Z" fill="url(#paint1_radial_283_7131)"/>
<path d="M39.4572 22.1711C36.0086 20.6742 32.2097 19.8515 28.2222 19.8515C20.4358 19.8515 13.3769 23.0073 8.2713 28.105C3.1657 22.9938 0 15.9136 0 8.1051C0 6.1362 0.2021 4.2211 0.5793 2.3601C4.0414 0.8361 7.8672 0 11.8951 0C25.4067 0 36.6956 9.4807 39.4841 22.1711H39.4572Z" fill="url(#paint2_linear_283_7131)"/>
<path d="M39.4572 34.0389C36.0086 35.5358 32.2097 36.3585 28.2222 36.3585C20.4358 36.3585 13.3769 33.2027 8.2713 28.105C3.1657 33.2162 0 40.2964 0 48.1049C0 50.0738 0.2021 51.9889 0.5793 53.8499C4.0414 55.3604 7.8672 56.21 11.8951 56.21C25.4067 56.21 36.6956 46.7293 39.4841 34.0389H39.4572Z" fill="url(#paint3_linear_283_7131)"/>
<defs>
<linearGradient id="paint0_linear_283_7131" x1="1.2124" y1="45.5831" x2="29.5708" y2="40.5367" gradientUnits="userSpaceOnUse">
<stop stop-color="#2D5CF3"/>
<stop offset="1" stop-color="#0034AA"/>
</linearGradient>
<radialGradient id="paint1_radial_283_7131" cx="0" cy="0" r="1" gradientUnits="userSpaceOnUse" gradientTransform="translate(13.9424 28.0509) scale(28.0201 23.7401)">
<stop stop-color="#3C69FF"/>
<stop offset="1" stop-color="#0034AA"/>
</radialGradient>
<linearGradient id="paint2_linear_283_7131" x1="6.9377" y1="4.9224" x2="15.1712" y2="28.0453" gradientUnits="userSpaceOnUse">
<stop stop-color="#2D5AF1"/>
<stop offset="1" stop-color="#0034AA"/>
</linearGradient>
<linearGradient id="paint3_linear_283_7131" x1="1.2124" y1="45.583" x2="29.5712" y2="40.5365" gradientUnits="userSpaceOnUse">
<stop stop-color="#2D5CF3"/>
<stop offset="1" stop-color="#0034AA"/>
</linearGradient>
</defs>
</svg>
