<svg width="150" height="150" viewBox="0 0 150 150" fill="none" xmlns="http://www.w3.org/2000/svg">
<g clip-path="url(#clip0_492_202)">
<path d="M118.313 13.8125C119.643 14.8953 119.643 14.8953 121 16C121 16.66 121 17.32 121 18C121.619 18.3094 122.238 18.6187 122.875 18.9375C124.25 19.625 125.625 20.3125 127 21C127 21.66 127 22.32 127 23C127.857 23.348 127.857 23.348 128.731 23.7031C139.344 29.7677 146.198 45.7893 149.411 56.968C150.541 62.7858 150.48 68.6615 150.446 74.5666C150.438 76.7986 150.466 79.028 150.498 81.2598C150.598 101.159 142.857 117.141 129.016 131.152C125.03 135.01 120.783 138.19 116 141C115.224 141.458 114.448 141.915 113.648 142.387C111.145 143.745 108.625 144.895 106 146C105.102 146.394 104.203 146.789 103.277 147.195C87.545 152.884 64.289 153.137 49.0001 146C39.5405 141.409 30.832 136.064 23.0001 129C22.2331 128.326 21.4661 127.652 20.6758 126.957C9.26881 116.325 0.234211 100.274 -0.66985 84.442C-0.746103 81.476 -0.739093 78.5196 -0.672307 75.5535C-0.624717 73.3018 -0.631295 71.0548 -0.644475 68.8027C-0.599072 56.6777 1.70767 46.0201 8.00006 35.5C8.66006 34.3759 9.32006 33.2519 10.0001 32.0937C11.8581 29.2196 13.7166 26.5498 16.0001 24C16.6601 24 17.3201 24 18.0001 24C18.2476 23.3812 18.4951 22.7625 18.7501 22.125C20.2063 19.6493 21.3782 19.0487 24.0001 18C24.0001 17.34 24.0001 16.68 24.0001 16C26.0533 14.454 28.0829 13.0579 30.2501 11.6875C30.8825 11.2852 31.5149 10.8829 32.1666 10.4685C59.2549 -6.34392 92.4099 -3.76806 118.313 13.8125ZM43.0001 34C43.0001 34.33 43.0001 34.66 43.0001 35C44.8457 35.0297 44.8457 35.0297 46.7286 35.06C51.3209 35.1365 55.9129 35.2251 60.5049 35.3174C62.4873 35.3555 64.4697 35.3904 66.4522 35.4219C69.3121 35.4678 72.1716 35.5258 75.0313 35.5859C75.9087 35.5975 76.7861 35.609 77.6901 35.6209C87.3743 35.8499 96.2835 37.9266 103.75 44.375C108.962 50.4561 111.357 54.7995 111.297 62.832C110.756 66.7814 108.855 71.1447 106 74C105.959 75.6662 105.957 77.3339 106 79C106.99 79 107.98 79 109 79C109.33 79 109.66 79 110 79C110.99 87.25 111.98 95.5 113 104C103.326 106.764 94.252 107.484 85.0001 103C79.6771 99.9583 75.1281 96.5275 71.0001 92C70.6701 96.29 70.3401 100.58 70.0001 105C61.7501 105 53.5001 105 45.0001 105C44.5051 104.01 44.5051 104.01 44.0001 103C42.3501 103 40.7001 103 39.0001 103C39.0001 81.88 39.0001 60.76 39.0001 39C33.1795 40.9402 29.8677 48.7574 27.0001 54C20.9481 67.0388 20.3177 81.9176 25.1251 95.375C30.9766 109.727 38.7816 118.807 53.0001 125C53.8006 125.354 54.6011 125.709 55.4258 126.074C60.9912 128.076 66.5335 128.182 72.3751 128.187C73.0918 128.2 73.8085 128.212 74.5469 128.225C86.4758 128.257 98.8628 123.725 108 116C108 115.34 108 114.68 108 114C108.567 113.785 109.134 113.569 109.719 113.348C117.027 109.03 122.264 98.7987 125 91C125.392 89.8862 125.784 88.7725 126.188 87.625C129.517 72.7718 127.954 58.6048 120.43 45.2031C114.747 36.6929 107.807 28.5694 98.0001 25C97.2369 24.7035 96.4738 24.407 95.6876 24.1015C89.7341 22.1231 84.0326 21.7206 77.8126 21.6875C77.0644 21.682 76.3163 21.6765 75.5455 21.6709C63.6385 21.8232 51.8685 25.9491 43.0001 34ZM71.0001 61C71.0001 62.65 71.0001 64.3 71.0001 66C72.098 67.3119 72.098 67.3119 74.8126 67.25C78.295 66.9769 79.6001 66.4923 82.0001 64C82.0001 63.01 82.0001 62.02 82.0001 61C78.3701 61 74.7401 61 71.0001 61Z" fill="#28FFFB"/>
<path d="M41 38C52.3541 37.8763 52.3541 37.8763 63.9375 37.75C67.4952 37.6954 67.4952 37.6954 71.1248 37.6397C73.0298 37.628 74.9348 37.6178 76.8398 37.6094C78.293 37.5787 78.293 37.5787 79.7755 37.5474C87.6693 37.5434 93.3004 39.5872 99.875 43.875C103.597 47.5969 104.877 50.7035 105.375 55.9375C105.132 61.4789 103.193 65.5867 99.625 69.8125C94.7309 73.8909 90.4019 74.2796 84.1875 74.125C83.1482 74.1115 83.1482 74.1115 82.0879 74.0977C80.3918 74.0743 78.6958 74.0384 77 74C81.7154 79.0728 81.7154 79.0728 88.043 81.3008C93.8546 81.3325 98.6104 80.1406 104 78C105.723 85.0933 106.249 91.7097 106 99C100.098 102.741 91.1216 101.694 84.4492 100.57C76.3535 98.0237 72.9565 91.1798 69.25 84.125C68.6777 82.9932 68.1053 81.8614 67.5156 80.6953C66.2783 77.9056 66.2783 77.9056 64 77C64 84.59 64 92.18 64 100C56.41 100 48.82 100 41 100C41 79.54 41 59.08 41 38ZM71 61C71 62.65 71 64.3 71 66C72.098 67.3119 72.098 67.3119 74.8125 67.25C78.2949 66.9769 79.6 66.4923 82 64C82 63.01 82 62.02 82 61C78.37 61 74.74 61 71 61Z" fill="#28FFFB"/>
<path d="M71.8125 15.4375C72.8613 15.447 73.9101 15.4565 74.9907 15.4663C87.5407 15.8016 97.6962 19.8208 108 27C108.611 27.4151 109.222 27.8302 109.852 28.2578C119.6 35.6916 127.034 48.9707 129.605 60.7813C131.814 78.8009 129.083 95.219 117.777 109.883C108.049 121.199 95.0089 129.14 80 131C62.2651 131.983 47.4778 128.546 33.625 116.688C23.0685 106.559 15.2494 92.4839 14.7343 77.5977C14.7253 76.086 14.7308 74.5741 14.75 73.0625C14.7589 72.2662 14.7679 71.4699 14.7771 70.6494C15.092 54.7426 21.5932 42.0198 33 31C33.5981 30.4161 34.1962 29.8321 34.8125 29.2305C45.084 19.8386 58.0244 15.2348 71.8125 15.4375ZM43 34C43 34.33 43 34.66 43 35C44.8456 35.0297 44.8456 35.0297 46.7285 35.0601C51.3208 35.1365 55.9128 35.2252 60.5049 35.3174C62.4872 35.3555 64.4696 35.3904 66.4521 35.4219C69.3121 35.4679 72.1716 35.5258 75.0312 35.5859C75.9086 35.5975 76.786 35.609 77.69 35.6209C87.3742 35.8499 96.2834 37.9266 103.75 44.375C108.962 50.4561 111.357 54.7995 111.297 62.832C110.756 66.7815 108.855 71.1447 106 74C105.959 75.6662 105.957 77.3339 106 79C106.99 79 107.98 79 109 79C109.33 79 109.66 79 110 79C110.99 87.25 111.98 95.5 113 104C103.326 106.764 94.252 107.484 85 103C79.677 99.9583 75.128 96.5275 71 92C70.67 96.29 70.34 100.58 70 105C61.75 105 53.5 105 45 105C44.505 104.01 44.505 104.01 44 103C42.35 103 40.7 103 39 103C39 81.88 39 60.76 39 39C33.1794 40.9402 29.8677 48.7575 27 54C20.948 67.0388 20.3176 81.9176 25.125 95.375C30.9765 109.727 38.7815 118.807 53 125C53.8005 125.354 54.601 125.709 55.4258 126.074C60.9911 128.076 66.5334 128.182 72.375 128.188C73.0917 128.2 73.8084 128.212 74.5468 128.225C86.4757 128.257 98.8627 123.725 108 116C108 115.34 108 114.68 108 114C108.567 113.785 109.134 113.569 109.719 113.348C117.027 109.03 122.264 98.7988 125 91C125.392 89.8863 125.784 88.7725 126.187 87.625C129.517 72.7718 127.954 58.6048 120.43 45.2031C114.747 36.6929 107.807 28.5694 98 25C97.2368 24.7035 96.4737 24.407 95.6875 24.1016C89.734 22.1231 84.0325 21.7206 77.8125 21.6875C77.0643 21.682 76.3162 21.6765 75.5454 21.6709C63.6384 21.8233 51.8684 25.9491 43 34ZM41 38C41 58.46 41 78.92 41 100C48.59 100 56.18 100 64 100C64 92.41 64 84.82 64 77C66.8008 79.8008 68.0557 81.7849 69.8125 85.25C73.4015 91.9166 76.7927 98.1619 84.4492 100.57C91.1216 101.694 100.098 102.741 106 99C106.249 91.7097 105.723 85.0933 104 78C103.455 78.2166 102.909 78.4331 102.348 78.6563C96.1387 80.9488 89.9936 82.8245 83.6914 79.9453C78.3694 76.7388 78.3694 76.7388 77 74C78.0132 74.0348 79.0264 74.0696 80.0703 74.1055C81.4218 74.1336 82.7734 74.1609 84.125 74.1875C84.7901 74.2126 85.4553 74.2378 86.1406 74.2637C91.773 74.3465 95.6707 73.1046 99.8633 69.3164C100.581 68.4482 100.581 68.4482 101.312 67.5625C101.804 66.9863 102.295 66.4101 102.801 65.8164C105.5 61.7282 105.624 56.7635 105 52C103.074 46.3627 99.1949 42.7412 94 40C88.3866 37.5819 83.1305 37.7423 77.1328 37.8047C76.2149 37.8067 75.297 37.8087 74.3513 37.8108C70.9425 37.8212 67.5337 37.8491 64.125 37.875C52.6781 37.9369 52.6781 37.9369 41 38Z" fill="#4E4D4C"/>
<path d="M118.313 13.8125C119.643 14.8953 119.643 14.8953 121 16C121 16.66 121 17.32 121 18C121.619 18.3094 122.238 18.6187 122.875 18.9375C124.25 19.625 125.625 20.3125 127 21C127 21.66 127 22.32 127 23C127.857 23.348 127.857 23.348 128.731 23.7031C139.344 29.7677 146.198 45.7893 149.411 56.968C150.541 62.7858 150.48 68.6615 150.446 74.5666C150.438 76.7986 150.466 79.028 150.498 81.2598C150.598 101.159 142.857 117.141 129.016 131.152C125.03 135.01 120.783 138.19 116 141C115.224 141.458 114.448 141.915 113.648 142.387C111.145 143.745 108.625 144.895 106 146C105.102 146.394 104.203 146.789 103.277 147.195C87.545 152.884 64.289 153.137 49.0001 146C39.5405 141.409 30.832 136.064 23.0001 129C22.2331 128.326 21.4661 127.652 20.6758 126.957C9.26881 116.325 0.234211 100.274 -0.66985 84.442C-0.746103 81.476 -0.739093 78.5196 -0.672307 75.5535C-0.624717 73.3018 -0.631295 71.0548 -0.644475 68.8027C-0.599072 56.6777 1.70767 46.0201 8.00006 35.5C8.66006 34.3759 9.32006 33.2519 10.0001 32.0937C11.8581 29.2196 13.7166 26.5498 16.0001 24C16.6601 24 17.3201 24 18.0001 24C18.2476 23.3812 18.4951 22.7625 18.7501 22.125C20.2063 19.6493 21.3782 19.0487 24.0001 18C24.0001 17.34 24.0001 16.68 24.0001 16C26.0533 14.454 28.0829 13.0579 30.2501 11.6875C30.8825 11.2852 31.5149 10.8829 32.1666 10.4685C59.2549 -6.34392 92.4099 -3.76806 118.313 13.8125ZM16.3126 28C4.34864 43.3576 -0.398121 61.7362 1.00006 81C3.10944 96.1876 9.05223 109.426 19.0001 121C19.6149 121.727 20.2298 122.454 20.8633 123.203C33.969 137.459 51.6996 143.598 70.543 145.219C82.477 145.698 94.578 142.689 105 137C105.839 136.558 106.678 136.116 107.543 135.66C125.367 125.684 136.844 109.251 142.621 89.9219C147.058 71.9299 143.597 53.3626 134.973 37.25C124.44 19.8974 107.296 7.71084 87.6251 2.74998C60.0748 -1.95687 34.889 7.00603 16.3126 28Z" fill="#55524F"/>
<path d="M66 16C82.1341 15.1768 94.4153 17.5348 108 27C108.611 27.415 109.222 27.8301 109.852 28.2578C119.6 35.6916 127.034 48.9707 129.605 60.7812C131.814 78.8009 129.083 95.219 117.777 109.883C108.049 121.199 95.0089 129.14 80 131C62.0499 131.995 47.2697 128.424 33.3125 116.375C30.0798 113.444 28.3633 111.151 27 107C26.7112 106.134 26.4225 105.267 26.125 104.375C25.7537 103.261 25.3825 102.147 25 101C23.9729 98.2583 22.9441 95.5174 21.9023 92.7812C17.5159 79.2613 19.2082 62.7501 25.4609 50.0273C29.0229 44.3228 29.0229 44.3228 32.1875 43.2773C32.7856 43.1858 33.3837 43.0943 34 43C33.6133 43.6548 33.2265 44.3097 32.8281 44.9843C25.2334 58.2938 20.2825 73.5878 24 89C27.8651 101.578 33.6707 113.757 45.4883 120.398C47.9682 121.67 50.4529 122.87 53 124C53.8018 124.356 54.6036 124.712 55.4297 125.078C60.9949 127.074 66.5351 127.182 72.375 127.187C73.0917 127.2 73.8084 127.212 74.5468 127.225C86.2889 127.256 96.7179 122.962 106 116C106.66 116 107.32 116 108 116C108 115.34 108 114.68 108 114C108.731 113.433 109.462 112.866 110.215 112.281C113.351 109.712 115.421 106.889 117.562 103.5C117.953 102.883 118.344 102.267 118.746 101.632C126.126 89.5796 128.651 75.9169 126 62C122.434 48.8661 115.654 36.4954 104.102 28.7226C102.103 27.642 100.127 26.7962 98 26C97.2356 25.7022 96.4711 25.4044 95.6836 25.0976C89.7301 23.1253 84.0311 22.7206 77.8125 22.6875C77.0643 22.682 76.3162 22.6765 75.5454 22.6709C68.5323 22.7606 62.3043 24.2889 55.8125 27C54.6156 27.495 54.6156 27.495 53.3945 28C52.6043 28.33 51.8141 28.66 51 29C49.3343 29.669 47.6679 30.3364 46 31C45.34 30.34 44.68 29.68 44 29C53.0883 23.8361 61.8539 21.1889 72 19C70.02 18.34 68.04 17.68 66 17C66 16.67 66 16.34 66 16Z" fill="#53504E"/>
<path d="M135 38C137.483 38.363 138.687 38.6336 140.344 40.5742C149.59 57.4742 151.392 77.5915 147.168 96.2344C143.695 107.431 137.918 117.359 130 126C129.437 126.632 128.873 127.263 128.293 127.914C120.613 136.08 111.52 141.308 101 145C100.3 145.263 99.5991 145.525 98.8774 145.796C91.6851 148.268 84.9301 148.417 77.375 148.312C75.6116 148.317 75.6116 148.317 73.8125 148.322C67.533 148.283 62.0056 147.861 56 146C56 145.01 56 144.02 56 143C56.7502 143.072 57.5005 143.144 58.2734 143.219C74.7926 144.717 90.1547 144.104 105 136C105.839 135.558 106.678 135.116 107.543 134.66C125.823 124.429 135.558 108.641 141.875 89.3242C145.917 73.0715 143.112 54.4849 135 40C135 39.34 135 38.68 135 38Z" fill="#646362"/>
<path d="M69 17C70.686 17.2008 72.3736 17.3886 74.0625 17.5625C75.3619 17.7069 76.6613 17.8513 78 18C78 18.33 78 18.66 78 19C76.5498 19.2727 76.5498 19.2727 75.0703 19.5508C64.6932 21.5373 55.137 23.4798 46 29C45.34 29 44.68 29 44 29C44 29.66 44 30.32 44 31C42.5313 32.375 42.5313 32.375 40.5 34C28.1916 44.4502 22.0949 57.0399 20.6407 72.9258C20.4338 82.8857 21.5715 92.7066 26.25 101.625C26.8275 102.739 27.405 103.853 28 105C27.67 105.99 27.34 106.98 27 108C19.6648 101.288 15.5628 89.7369 14.8477 79.9058C14.1255 63.0113 17.0192 48.5117 28.5 35.5C29.9762 33.9765 31.4744 32.4739 33 31C33.5982 30.4161 34.1963 29.8321 34.8125 29.2305C44.0867 20.7506 56.4086 14.5572 69 17Z" fill="#666564"/>
<path d="M121 18C123 19 125 20 127 21C127 21.66 127 22.32 127 23C127.571 23.232 128.142 23.4641 128.73 23.7031C139.344 29.7677 146.198 45.7893 149.411 56.968C150.541 62.7858 150.48 68.6615 150.446 74.5667C150.438 76.7986 150.466 79.028 150.498 81.2598C150.598 101.159 142.857 117.141 129.016 131.152C125.03 135.01 120.783 138.19 116 141C115.224 141.458 114.448 141.915 113.648 142.387C111.145 143.745 108.625 144.895 106 146C105.102 146.394 104.203 146.789 103.277 147.195C87.4572 152.915 64.4139 153.026 49 146C45.2304 144.151 41.5806 142.192 38 140C38.33 139.01 38.66 138.02 39 137C44.7221 138.868 50.3766 140.853 56 143C56 143.99 56 144.98 56 146C71.3273 148.319 89.6623 149.672 104 143C105.016 142.564 106.032 142.129 107.078 141.68C124.998 133.44 138.369 118.199 145.195 99.7734C150.515 81.0247 148.814 62.6874 141 45C140.312 43.0074 139.637 41.0096 139 39C138.234 38.9188 137.469 38.8376 136.68 38.7539C133.346 37.8161 132.832 36.8823 131.125 33.9375C128.563 29.7539 125.696 26.2772 122.32 22.7266C121 21 121 21 121 18Z" fill="#4D4C4C"/>
<path d="M104 51C104.99 51 105.98 51 107 51C109.823 55.7912 109.51 60.5901 109 66C107.455 70.2494 105.454 73.0854 102 76C99.2097 76.9301 97.2347 77.187 94.332 77.3164C93.4394 77.3583 92.5467 77.4002 91.627 77.4434C90.6982 77.4827 89.7694 77.522 88.8125 77.5625C87.8721 77.6057 86.9318 77.6489 85.9629 77.6934C83.6421 77.7994 81.3211 77.9015 79 78C78.34 76.68 77.68 75.36 77 74C78.0132 73.9626 79.0264 73.9252 80.0703 73.8867C81.4219 73.821 82.7735 73.7546 84.125 73.6875C84.7902 73.6649 85.4553 73.6424 86.1406 73.6191C91.481 73.3312 95.608 72.1307 99.6445 68.5352C103.261 63.9749 104.147 60.9692 104.062 55.25C104.053 54.4508 104.044 53.6516 104.035 52.8281C104.024 52.2248 104.012 51.6216 104 51Z" fill="#646260"/>
<path d="M46 30C45.34 31.32 44.68 32.64 44 34C47.8064 36.5376 50.9686 36.3498 55.3867 36.4141C56.2037 36.4334 57.0207 36.4528 57.8625 36.4727C60.4707 36.5325 63.079 36.5789 65.6875 36.625C67.4564 36.6632 69.2253 36.7022 70.9941 36.7422C75.3293 36.8382 79.6645 36.9222 84 37C84 37.33 84 37.66 84 38C69.81 38 55.62 38 41 38C41 58.46 41 78.92 41 100C48.59 100 56.18 100 64 100C64 100.33 64 100.66 64 101C56.08 101 48.16 101 40 101C39.67 80.54 39.34 60.08 39 39C37.68 40.32 36.36 41.64 35 43C34.01 43 33.02 43 32 43C33.4656 39.6031 35.3665 37.3928 38 34.8125C39.0519 33.7703 39.0519 33.7703 40.125 32.707C42.1859 30.8308 43.1962 30 46 30Z" fill="#5C5A57"/>
<path d="M64 55C66.2286 54.9186 68.458 54.8606 70.6875 54.8125C72.5496 54.7603 72.5496 54.7603 74.4492 54.707C78.4961 55.0409 81.1124 56.1124 84 59C84.3788 62.4093 84.36 64.3782 82.625 67.375C78.5592 69.8919 74.658 69.5127 70 69C66.375 68 66.375 68 64 67C64 63.04 64 59.08 64 55ZM71 61C71 62.65 71 64.3 71 66C72.098 67.3119 72.098 67.3119 74.8125 67.25C78.2949 66.9769 79.6 66.4923 82 64C82 63.01 82 62.02 82 61C78.37 61 74.74 61 71 61Z" fill="#686562"/>
<path d="M32 43C32.66 43.33 33.32 43.66 34 44C33.5295 44.7502 33.059 45.5005 32.5742 46.2734C24.9403 58.8228 21.3204 71.7859 23.418 86.6367C24.9937 93.0347 27.3408 99.5112 31 105C30 108 30 108 28 110C27.8298 109.478 27.6597 108.956 27.4844 108.418C25.7394 103.118 23.8594 97.888 21.8672 92.6758C17.6757 79.7427 19.5575 65.5826 24 53C28.1628 44.9186 28.1628 44.9186 32 43Z" fill="#4C4C4B"/>
<path d="M107 83C107.66 83.33 108.32 83.66 109 84C110.589 90.2189 111.291 96.5944 111 103C108.651 104.174 107.262 104.115 104.648 104.098C103.798 104.094 102.947 104.091 102.07 104.088C101.181 104.08 100.291 104.071 99.375 104.062C98.4778 104.058 97.5806 104.053 96.6562 104.049C94.4374 104.037 92.2187 104.021 90 104C90 103.01 90 102.02 90 101C90.8314 100.939 91.6629 100.879 92.5195 100.816C94.1496 100.691 94.1496 100.691 95.8125 100.562C96.8914 100.481 97.9704 100.4 99.082 100.316C102.06 100.098 102.06 100.098 105 99C105 94.05 105 89.1 105 84C105.66 83.67 106.32 83.34 107 83Z" fill="#666563"/>
<path d="M16 63C16.33 63 16.66 63 17 63C17.0735 64.7924 17.0735 64.7924 17.1484 66.6211C17.6806 78.4318 17.6806 78.4318 20 90C20.66 90 21.32 90 22 90C26.2232 101.522 26.2232 101.522 28 107C27.01 107 26.02 107 25 107C17.2586 92.4717 14.077 80.579 15 64C15.33 63.67 15.66 63.34 16 63Z" fill="#5C5955"/>
<path d="M53 21C52.2498 21.3893 51.4995 21.7786 50.7266 22.1797C41.8808 27.0148 34.9977 32.8 28.8438 40.8047C28.2353 41.5291 27.6269 42.2536 27 43C26.34 43 25.68 43 25 43C24.67 43.99 24.34 44.98 24 46C23.67 45.01 23.34 44.02 23 43C27.6486 34.228 42.0561 17.6036 53 21Z" fill="#5D5A58"/>
<path d="M79.9999 57C81.3199 57.66 82.6399 58.32 83.9999 59C84.3071 62.3791 84.3452 64.4036 82.6249 67.375C78.5952 69.8696 74.6193 69.3174 69.9999 69C67.6777 65.2264 67.9999 63.988 67.9999 59C73.9399 58.505 73.9399 58.505 79.9999 58C79.9999 57.67 79.9999 57.34 79.9999 57ZM70.9999 61C70.9999 62.65 70.9999 64.3 70.9999 66C72.0979 67.3119 72.0979 67.3119 74.8124 67.25C78.2948 66.9769 79.6 66.4923 81.9999 64C81.9999 63.01 81.9999 62.02 81.9999 61C78.3699 61 74.7399 61 70.9999 61Z" fill="#514E4C"/>
<path d="M52.8664 34.7478C53.6685 34.7549 54.4705 34.7621 55.2969 34.7695C56.1233 34.77 56.9497 34.7704 57.8011 34.7709C59.553 34.7739 61.3048 34.7818 63.0566 34.7942C65.7254 34.8123 68.3937 34.8147 71.0625 34.8144C72.7656 34.8194 74.4688 34.8252 76.1719 34.832C77.3628 34.8337 77.3628 34.8337 78.5778 34.8354C82.8252 34.8713 86.8163 35.1635 91 36C91 36.66 91 37.32 91 38C75.82 37.67 60.64 37.34 45 37C47.5876 34.4124 49.3412 34.7624 52.8664 34.7478Z" fill="#4A4A48"/>
<path d="M66 78C67.9165 80.164 68.9444 81.4672 69.2488 84.3818C69.1912 85.2407 69.1336 86.0995 69.0742 86.9844C69.0261 87.8271 68.978 88.6698 68.9285 89.5381C68.8489 90.598 68.7694 91.6579 68.6875 92.75C68.4606 96.1325 68.2338 99.515 68 103C61.07 103 54.14 103 47 103C47 102.67 47 102.34 47 102C52.94 102 58.88 102 65 102C64.9884 100.435 64.9768 98.8702 64.9648 97.2578C64.9555 95.2135 64.9464 93.1693 64.9375 91.125C64.9291 90.0925 64.9207 89.0599 64.9121 87.9961C64.9073 86.5169 64.9073 86.5169 64.9023 85.0078C64.8945 83.641 64.8945 83.641 64.8865 82.2466C65 80 65 80 66 78Z" fill="#656363"/>
<path d="M66 16C68.8544 15.9456 71.7078 15.9061 74.5625 15.875C75.3624 15.8582 76.1622 15.8415 76.9863 15.8242C82.0381 15.783 86.2765 16.1255 91 18C91.33 18.99 91.66 19.98 92 21C88.7285 20.8901 85.4581 20.7595 82.1875 20.625C81.2587 20.5941 80.33 20.5631 79.373 20.5312C78.034 20.4732 78.034 20.4732 76.668 20.4141C75.4347 20.3669 75.4347 20.3669 74.1765 20.3188C70.9046 19.8395 68.7225 17.815 66 16Z" fill="#5A5756"/>
<path d="M128 118C128.66 118.33 129.32 118.66 130 119C126.089 124.311 122.378 129.123 117 133C116.34 133 115.68 133 115 133C115 133.66 115 134.32 115 135C113.02 135.33 111.04 135.66 109 136C109 135.34 109 134.68 109 134C110.621 132.731 112.299 131.535 114 130.375C119.218 126.689 123.661 122.674 128 118Z" fill="#5E5C58"/>
<path d="M80 77C85.61 77 91.22 77 97 77C96.34 78.65 95.68 80.3 95 82C88.6354 82.5092 84.9488 82.1874 80 78C80 77.67 80 77.34 80 77Z" fill="#5A5753"/>
<path d="M56 143C64.58 143.66 73.16 144.32 82 145C82 145.33 82 145.66 82 146C79.1682 146.393 76.3361 146.765 73.5 147.125C72.7085 147.237 71.917 147.349 71.1016 147.465C65.5241 148.151 61.3728 147.664 56 146C56 145.01 56 144.02 56 143Z" fill="#595857"/>
<path d="M119 40C125.231 45.6726 128.444 53.6569 129 62C128.01 62 127.02 62 126 62C125.662 61.0474 125.325 60.0948 124.977 59.1133C124.526 57.8463 124.076 56.5794 123.625 55.3125C122.964 53.4504 122.964 53.4504 122.289 51.5508C121.518 49.4265 120.712 47.3138 119.836 45.2305C119 43 119 43 119 40Z" fill="#575452"/>
<path d="M135 38C137.555 38.3658 138.729 38.7001 140.484 40.6445C144.278 47.1436 144.565 52.5735 144 60C141.311 57.3111 140.614 54.2297 139.5 50.6875C138.128 46.4012 136.736 42.1562 135 38Z" fill="#5B5857"/>
<path d="M108 138C105.69 139.32 103.38 140.64 101 142C101 142.99 101 143.98 101 145C97.3173 144.401 93.6546 143.752 90 143C92.9557 141.488 95.9413 140.104 99 138.813C99.8456 138.448 100.691 138.083 101.562 137.707C104.2 136.942 105.455 137.075 108 138Z" fill="#605C5A"/>
<path d="M94.375 37.625C98.007 39.0027 100.264 40.264 103 43C103.812 45.25 103.812 45.25 104 47C103.01 47.495 103.01 47.495 102 48C101.041 46.8862 101.041 46.8862 100.062 45.75C96.6584 42.2967 92.4535 40.7368 88 39C91 37 91 37 94.375 37.625Z" fill="#534F4D"/>
<path d="M58 0C58.33 0.66 58.66 1.32 59 2C59.99 2.33 60.98 2.66 62 3C57.71 3.99 53.42 4.98 49 6C49.33 4.68 49.66 3.36 50 2C52.64 1.34 55.28 0.68 58 0Z" fill="#5D5A57"/>
<path d="M124 51C124.99 51.33 125.98 51.66 127 52C128.336 55.006 129.143 57.0915 128.625 60.375C128.419 60.9112 128.213 61.4475 128 62C127.34 62 126.68 62 126 62C125.01 58.7 124.02 55.4 123 52C123.33 51.67 123.66 51.34 124 51Z" fill="#5D5958"/>
<path d="M141 92C141.99 92.99 142.98 93.98 144 95C143.382 96.316 142.756 97.6277 142.125 98.9375C141.777 99.6684 141.429 100.399 141.07 101.152C140 103 140 103 138 104C138.508 99.6823 139.197 95.967 141 92Z" fill="#615E5B"/>
<path d="M29 16C29.66 16.33 30.32 16.66 31 17C26.25 22.75 26.25 22.75 24 25C22.68 24.67 21.36 24.34 20 24C22.97 21.36 25.94 18.72 29 16Z" fill="#28FFFB"/>
<path d="M109 92C111.326 95.6342 111.163 98.7709 111 103C110.34 102.01 109.68 101.02 109 100C107.68 100.33 106.36 100.66 105 101C105.66 100.67 106.32 100.34 107 100C107.392 98.3461 107.721 96.6765 108 95C108.33 94.01 108.66 93.02 109 92Z" fill="#5B5C5B"/>
<path d="M95 104C98.96 104 102.92 104 107 104C106.67 104.99 106.34 105.98 106 107C104.02 107 102.04 107 100 107C100 106.34 100 105.68 100 105C98.35 105 96.7 105 95 105C95 104.67 95 104.34 95 104Z" fill="#515151"/>
<path d="M81 57C81 57.66 81 58.32 81 59C76.71 59 72.42 59 68 59C72.6157 56.6921 76.0061 55.3353 81 57Z" fill="#5F5E5D"/>
<path d="M53 125C54.65 125.33 56.3 125.66 58 126C58.33 126.99 58.66 127.98 59 129C59.99 129.33 60.98 129.66 62 130C55.375 129.25 55.375 129.25 52 127C52.33 126.34 52.66 125.68 53 125Z" fill="#656460"/>
<path d="M91 37C94.125 37.625 94.125 37.625 97 39C97.33 40.32 97.66 41.64 98 43C93.05 41.02 93.05 41.02 88 39C88.99 38.34 89.98 37.68 91 37Z" fill="#64605D"/>
<path d="M1 52C1.66 52.33 2.32 52.66 3 53C3.0816 57.1614 2.98249 60.9472 2 65C1.67 65 1.34 65 1 65C1.02063 64.0719 1.04125 63.1438 1.0625 62.1875C1.1577 58.9771 1.1577 58.9771 0 56C0.4375 53.8125 0.4375 53.8125 1 52Z" fill="#595452"/>
<path d="M22 18C22.33 18.66 22.66 19.32 23 20C20.8249 24.6936 20.8249 24.6936 17.8125 25.8125C17.2144 25.8744 16.6162 25.9363 16 26C16 25.34 16 24.68 16 24C16.66 24 17.32 24 18 24C18.2887 23.3813 18.5775 22.7625 18.875 22.125C20 20 20 20 22 18Z" fill="#4C4949"/>
<path d="M135 107C135.99 107.33 136.98 107.66 138 108C134.25 113.875 134.25 113.875 132 115C132.547 111.625 133.055 109.918 135 107Z" fill="#5B5955"/>
<path d="M2 86C2.33 86 2.66 86 3 86C3.66 89.3 4.32 92.6 5 96C3.68 95.67 2.36 95.34 1 95C1.33 92.03 1.66 89.06 2 86Z" fill="#605D58"/>
<path d="M104 51C104.99 51 105.98 51 107 51C108.159 54.4782 107.708 56.459 107 60C106.34 59.67 105.68 59.34 105 59C104.406 56.3514 104.258 53.708 104 51Z" fill="#5B5B5A"/>
<path d="M77 74C80.63 74 84.26 74 88 74C88 74.33 88 74.66 88 75C85.36 75 82.72 75 80 75C79.67 75.99 79.34 76.98 79 78C78.34 76.68 77.68 75.36 77 74Z" fill="#867F7A"/>
<path d="M65 17C62.2378 19.7622 59.7929 19.5786 56 20C56 19.34 56 18.68 56 18C58.9566 16.5217 61.7423 16.9397 65 17Z" fill="#575250"/>
</g>
<defs>
<clipPath id="clip0_492_202">
<rect width="150" height="150" fill="white"/>
</clipPath>
</defs>
</svg>
