<svg width="48" height="48" viewBox="0 0 48 48" fill="none" xmlns="http://www.w3.org/2000/svg">
<mask id="mask0_917_681" style="mask-type:luminance" maskUnits="userSpaceOnUse" x="0" y="38" width="15" height="10">
<path d="M14.8825 38.9038L14.5361 47.9999H4.8866C4.24453 47.9999 3.60876 47.8878 3.01563 47.6702C2.42249 47.4525 1.88361 47.1334 1.42979 46.7312C0.975978 46.329 0.616119 45.8516 0.370788 45.3262C0.125456 44.8007 -0.000540086 44.2377 1.74012e-06 43.6691V41.7374C5.13235 41.7442 10.2069 40.778 14.8825 38.9038Z" fill="white"/>
</mask>
<g mask="url(#mask0_917_681)">
<path d="M15.3525 48.5073H-0.482544V38.6919H15.3525V48.5073Z" fill="white"/>
</g>
<mask id="mask1_917_681" style="mask-type:luminance" maskUnits="userSpaceOnUse" x="0" y="0" width="34" height="42">
<path d="M11.8928 15.3367C11.9427 15.479 11.9593 15.6288 11.9416 15.7769C11.9238 15.9251 11.8722 16.0685 11.7897 16.1984C11.7036 16.3262 11.5889 16.4371 11.4528 16.5244C11.3167 16.6117 11.1619 16.6734 10.9979 16.706C10.8329 16.7381 10.662 16.7391 10.4965 16.7089C10.3309 16.6787 10.1744 16.618 10.0371 16.5307L6.98144 14.5771C6.81632 14.4708 6.70161 14.314 6.65951 14.1371C6.61741 13.9602 6.65091 13.7757 6.75353 13.6194C6.85615 13.4631 7.0206 13.3461 7.21505 13.2909C7.4095 13.2358 7.62013 13.2465 7.80618 13.321L11.2412 14.6867C11.3951 14.7486 11.5327 14.8385 11.6449 14.9504C11.7571 15.0624 11.8416 15.194 11.8928 15.3367ZM11.8928 33.1417C11.8406 33.2841 11.7553 33.4152 11.6424 33.5265C11.5294 33.6378 11.3914 33.7269 11.2371 33.7881L7.80206 35.1574C7.61489 35.2369 7.40074 35.251 7.20237 35.1968C7.00399 35.1426 6.83598 35.0242 6.73187 34.8652C6.62776 34.7062 6.5952 34.5182 6.6407 34.3389C6.68619 34.1595 6.8064 34.0019 6.97732 33.8976L10.033 31.9477C10.17 31.8602 10.3262 31.7992 10.4914 31.7684C10.6567 31.7377 10.8274 31.738 10.9926 31.7693C11.1577 31.8007 11.3136 31.8623 11.4502 31.9502C11.5868 32.0382 11.701 32.1505 11.7856 32.28C11.868 32.4098 11.9197 32.5533 11.9374 32.7014C11.9552 32.8496 11.9386 32.9994 11.8887 33.1417M5.70309 25.2908L4.39175 24.8928C4.19379 24.8331 4.02191 24.7199 3.9002 24.5693C3.77849 24.4187 3.71305 24.2382 3.71305 24.053C3.71305 23.8678 3.77849 23.6872 3.9002 23.5366C4.02191 23.386 4.19379 23.2729 4.39175 23.2131L5.70309 22.8151C5.92525 22.7483 6.16218 22.7294 6.39425 22.7598C6.62632 22.7903 6.84684 22.8693 7.03754 22.9904C7.22824 23.1114 7.38363 23.2709 7.49082 23.4557C7.59801 23.6405 7.65393 23.8452 7.65393 24.053C7.65393 24.2607 7.59801 24.4655 7.49082 24.6503C7.38363 24.8351 7.22824 24.9946 7.03754 25.1156C6.84684 25.2366 6.62632 25.3156 6.39425 25.3461C6.16218 25.3766 5.92525 25.3576 5.70309 25.2908ZM20.9155 3.24588e-05H13.3361C13.335 3.13207 11.9297 6.13559 9.42908 8.35062C6.92843 10.5656 3.53699 11.8109 0 11.8129L0 41.7375C5.13234 41.7443 10.2069 40.7781 14.8825 38.9039L15.4722 23.4358C14.4289 22.9794 13.6825 21.7671 13.6825 20.3503C13.6825 18.7545 14.6227 17.429 15.8639 17.1296C16.0331 16.1688 16.4172 15.2476 16.9938 14.4201C16.7227 14.3904 16.4627 14.3066 16.2334 14.1751C16.0041 14.0435 15.8115 13.8676 15.6701 13.6606C14.5484 12.1999 13.035 10.7028 11.8763 8.28181C11.7691 8.07308 11.727 7.8427 11.7546 7.61469C11.7822 7.38668 11.8783 7.1694 12.033 6.9855C12.0968 6.91169 12.1779 6.85108 12.2709 6.8079C12.3638 6.76472 12.4662 6.74001 12.5711 6.7355C12.6759 6.73098 12.7806 6.74676 12.8778 6.78174C12.975 6.81671 13.0625 6.87005 13.134 6.93803C14.9278 8.44248 17.0845 8.89162 18.2763 10.334C18.3649 10.1557 18.48 9.98871 18.6186 9.83738C18.9558 9.45012 19.4285 9.17272 19.9627 9.04851C20.4969 8.92431 21.0625 8.96031 21.5711 9.15088C21.7275 8.68353 22.0503 8.27346 22.4913 7.98183C22.9324 7.6902 23.4681 7.53264 24.0185 7.53264C24.569 7.53264 25.1047 7.6902 25.5458 7.98183C25.9868 8.27346 26.3096 8.68353 26.466 9.15088C27.0073 8.93722 27.6195 8.91116 28.1814 9.07785C29.5631 6.74896 31.2669 4.5815 33.2536 2.62552C29.4352 0.893844 25.2055 -0.00623021 20.9155 3.24588e-05Z" fill="white"/>
</mask>
<g mask="url(#mask1_917_681)">
<path d="M34.3793 42.1978H-0.457764V-0.218956H34.3793V42.1978Z" fill="white"/>
</g>
<mask id="mask2_917_681" style="mask-type:luminance" maskUnits="userSpaceOnUse" x="28" y="2" width="20" height="44">
<path d="M43.6412 24.8891L42.3257 25.2872C42.1036 25.3539 41.8666 25.3729 41.6346 25.3424C41.4025 25.3119 41.182 25.2329 40.9913 25.1119C40.8006 24.9909 40.6452 24.8314 40.538 24.6466C40.4308 24.4618 40.3749 24.257 40.3749 24.0493C40.3749 23.8415 40.4308 23.6368 40.538 23.452C40.6452 23.2672 40.8006 23.1077 40.9913 22.9867C41.182 22.8657 41.4025 22.7867 41.6346 22.7562C41.8666 22.7257 42.1036 22.7446 42.3257 22.8114L43.6412 23.2094C43.8391 23.2692 44.011 23.3823 44.1327 23.5329C44.2544 23.6835 44.3199 23.8641 44.3199 24.0493C44.3199 24.2345 44.2544 24.415 44.1327 24.5657C44.011 24.7163 43.8391 24.8294 43.6412 24.8891ZM40.8659 34.8506C40.7642 35.0075 40.6003 35.1254 40.406 35.1814C40.2117 35.2374 40.0009 35.2275 39.8144 35.1537L36.3793 33.7844C36.225 33.7237 36.0868 33.6348 35.9739 33.5236C35.861 33.4124 35.7759 33.2813 35.7242 33.139C35.6724 32.9966 35.6551 32.8462 35.6735 32.6975C35.6919 32.5489 35.7455 32.4053 35.8309 32.2763C35.915 32.1469 36.0289 32.0347 36.1651 31.9467C36.3013 31.8588 36.4569 31.7972 36.6217 31.7659C36.7865 31.7346 36.9569 31.7342 37.1219 31.7649C37.2868 31.7956 37.4427 31.8566 37.5793 31.944L40.635 33.8939C40.8003 33.9998 40.9155 34.1563 40.9581 34.333C41.0008 34.5097 40.9679 34.6941 40.8659 34.8506ZM35.7237 15.3366C35.7758 15.1943 35.8611 15.0632 35.9741 14.9519C36.087 14.8405 36.2251 14.7514 36.3793 14.6903L39.8144 13.3246C40.0004 13.2501 40.2111 13.2394 40.4055 13.2946C40.6 13.3497 40.7644 13.4667 40.867 13.623C40.9697 13.7793 41.0032 13.9638 40.9611 14.1407C40.919 14.3176 40.8043 14.4744 40.6391 14.5807L37.5835 16.5343C37.4464 16.6206 37.2905 16.6807 37.1258 16.7108C36.9611 16.7408 36.7911 16.7402 36.6266 16.709C36.4622 16.6777 36.3069 16.6165 36.1706 16.5292C36.0343 16.442 35.92 16.3305 35.835 16.202C35.7485 16.0729 35.6938 15.9291 35.6746 15.7799C35.6554 15.6307 35.6721 15.4797 35.7237 15.3366ZM35.5876 3.81955C34.8343 3.38867 34.0563 2.99065 33.2536 2.62549C31.2669 4.58147 29.5631 6.74893 28.1814 9.07782C28.67 9.21614 29.1009 9.48063 29.4185 9.83735C29.5557 9.98951 29.6707 10.1564 29.7608 10.334C30.8783 8.97923 32.8453 8.6725 34.569 7.21917C34.7359 7.06544 34.9593 6.96956 35.199 6.9488C35.4387 6.92805 35.6789 6.98378 35.8762 7.10597C35.9656 7.15806 36.0426 7.22503 36.103 7.30316C36.2165 7.4306 36.2877 7.58343 36.3088 7.74461C36.3299 7.90579 36.3001 8.069 36.2226 8.21605L36.1731 8.3183C35.0185 10.6918 33.5134 12.2036 32.4 13.6606C32.2565 13.8698 32.0606 14.0471 31.8276 14.1788C31.5945 14.3105 31.3304 14.393 31.0556 14.4201C31.6286 15.2475 32.006 16.1692 32.1649 17.1295C33.2824 17.3998 34.1525 18.4952 34.3175 19.8755C34.3376 20.0331 34.3472 20.1916 34.3463 20.3502C34.3463 21.6831 33.6865 22.837 32.734 23.3445C32.6782 23.3798 32.6188 23.4103 32.5567 23.4358V23.6659L33.3814 45.3051C37.7881 43.2807 41.482 40.2232 44.06 36.4664C46.638 32.7096 48.0009 28.3978 47.9999 24.0018C48.0042 19.9866 46.87 16.0347 44.7014 12.5085C42.5327 8.9823 39.399 5.99466 35.5876 3.81955Z" fill="white"/>
</mask>
<g mask="url(#mask2_917_681)">
<path d="M49.1092 45.7358H27.7319V2.44275H49.1092V45.7358Z" fill="white"/>
</g>
<mask id="mask3_917_681" style="mask-type:luminance" maskUnits="userSpaceOnUse" x="0" y="0" width="14" height="12">
<path d="M13.3361 0C13.335 3.13203 11.9297 6.13556 9.42907 8.35059C6.92843 10.5656 3.53699 11.8109 0 11.8128L0 4.32712C0 3.17949 0.514836 2.07888 1.43125 1.26738C2.34767 0.455891 3.59059 0 4.8866 0L13.3361 0Z" fill="white"/>
</mask>
<g mask="url(#mask3_917_681)">
<path d="M13.7608 12.3315H-0.490723V-0.288304H13.7608V12.3315Z" fill="white"/>
</g>
<path d="M26.4659 20.8908L25.0927 22.0082C24.9738 22.1068 24.8893 22.2335 24.8494 22.3734C24.7587 22.6947 24.5814 23.3264 24.437 23.9253C24.4145 24.0063 24.3612 24.078 24.2862 24.1285C24.2112 24.179 24.1189 24.2053 24.0247 24.2028C23.9305 24.2053 23.8382 24.179 23.7632 24.1285C23.6881 24.078 23.6349 24.0063 23.6123 23.9253L23.1752 22.3734C23.1367 22.233 23.052 22.106 22.9319 22.0082L21.5587 20.8908C21.4954 20.838 21.4526 20.7688 21.4364 20.6932C21.4202 20.6175 21.4314 20.5392 21.4685 20.4695C21.5055 20.3998 21.5665 20.3423 21.6427 20.3052C21.7189 20.2681 21.8064 20.2532 21.8927 20.2628L23.9546 20.5111H24.0659L24.2267 20.4928L26.1278 20.2628C26.2119 20.2553 26.2966 20.2709 26.3703 20.3075C26.4441 20.3441 26.5034 20.3999 26.5401 20.4673C26.5773 20.5376 26.5881 20.6166 26.571 20.6928C26.554 20.769 26.5099 20.8383 26.4453 20.8908M28.5072 20.4819C28.5202 19.6955 28.7739 18.9269 29.2412 18.2581C29.3598 18.0768 29.433 17.875 29.4557 17.6664C29.4785 17.4579 29.4503 17.2474 29.3731 17.0494L29.2783 17.1261C28.8594 17.4176 28.3431 17.5779 27.8103 17.5819C27.2776 17.5859 26.7583 17.4333 26.334 17.148C26.334 17.9002 25.5587 18.521 24.5443 18.6305C24.4385 18.6361 24.3325 18.6361 24.2267 18.6305C23.068 18.6305 22.1236 17.9586 22.1236 17.1297C21.6993 17.415 21.18 17.5676 20.6473 17.5636C20.1145 17.5597 19.5982 17.3994 19.1793 17.1078C19.0628 17.0237 18.9588 16.9268 18.87 16.8193C18.6977 17.0382 18.5978 17.2954 18.5818 17.5619C18.5658 17.8284 18.6342 18.0936 18.7793 18.3274C19.1778 18.9906 19.3846 19.7307 19.3814 20.4819C19.3841 21.2666 19.1476 22.0374 18.6968 22.713C18.5297 22.9698 18.4548 23.2657 18.482 23.5611C18.5093 23.8566 18.6374 24.1377 18.8494 24.3671C20.0329 25.6269 21.9257 26.6749 23.736 26.8137C23.8886 26.8137 24.0329 26.8137 24.1814 26.8137C26.2762 26.8137 27.9216 25.6598 29.0968 24.1407C29.264 23.9207 29.359 23.664 29.3713 23.3991C29.3837 23.1342 29.313 22.8714 29.1669 22.6399C28.7623 21.9783 28.5497 21.238 28.5484 20.4855" fill="white"/>
</svg>
