<svg width="48" height="48" viewBox="0 0 48 48" fill="none" xmlns="http://www.w3.org/2000/svg">
<path d="M21.6036 40.0166C21.7882 40.0169 21.971 40.0678 22.1415 40.1662C22.312 40.2646 22.4668 40.4086 22.5972 40.5901C22.7276 40.7716 22.8309 40.9869 22.9013 41.2238C22.9718 41.4607 23.0079 41.7145 23.0076 41.9708C23.0073 42.2271 22.9707 42.4807 22.8998 42.7174C22.8289 42.954 22.7251 43.1689 22.5944 43.3499C22.4636 43.5308 22.3085 43.6742 22.1378 43.772C21.9671 43.8697 21.7842 43.9198 21.5996 43.9195C21.2267 43.9187 20.8693 43.7124 20.606 43.3459C20.3427 42.9794 20.195 42.4828 20.1956 41.9652C20.1961 41.4477 20.3447 40.9516 20.6088 40.5862C20.8728 40.2207 21.2307 40.0158 21.6036 40.0166ZM43.6519 27.9498C43.4673 27.9496 43.2845 27.899 43.1139 27.8007C42.9434 27.7025 42.7885 27.5586 42.658 27.3773C42.5275 27.1959 42.4241 26.9807 42.3536 26.7439C42.283 26.5071 42.2468 26.2533 42.2469 25.997C42.247 25.7407 42.2835 25.487 42.3543 25.2503C42.4251 25.0136 42.5288 24.7986 42.6594 24.6175C42.7901 24.4364 42.9452 24.2929 43.1158 24.1949C43.2864 24.097 43.4693 24.0468 43.6539 24.0469C44.0268 24.0473 44.3844 24.2533 44.6478 24.6195C44.9113 24.9857 45.0592 25.4822 45.059 25.9998C45.0587 26.5173 44.9103 27.0135 44.6464 27.3792C44.3826 27.7449 44.0248 27.9502 43.6519 27.9498ZM43.6519 19.9664C42.4991 19.9679 41.3937 20.6041 40.5786 21.7356C39.7634 22.867 39.3049 24.4011 39.3039 26.0012C39.3039 26.6479 39.3819 27.2919 39.5339 27.9193L25.1716 38.5315C24.7734 37.7289 24.2405 37.0728 23.6189 36.6197C22.9973 36.1666 22.3057 35.93 21.6036 35.9305C19.9456 35.9305 18.4355 37.249 17.7035 39.3059L4.80131 29.8624C3.43729 28.8686 2.41727 25.7541 2.52527 22.9172C2.58127 21.4376 2.94928 20.2884 3.51129 19.8443C3.86729 19.5667 4.2953 19.5889 4.75131 19.9192L4.83531 19.983C8.25536 22.4813 19.4435 30.6619 19.9156 30.9644C20.6416 31.4336 21.0456 31.6223 22.2856 30.8062L45.414 14.1121C45.754 13.9344 46.15 13.4819 46.15 12.7963C46.15 11.8469 45.442 11.4722 45.44 11.4722C44.1239 10.5978 42.1019 9.28481 40.1299 8.00235C35.9138 5.26256 31.1357 2.15913 29.0377 0.632391C27.2257 -0.683376 25.7676 0.426976 25.5076 0.649047L25.0036 0.996032C15.5595 7.47771 2.91928 16.1662 2.19927 16.7741C0.913246 17.8623 0.115233 20.0302 0.011231 22.7201C-0.148772 26.9866 1.41725 31.4363 3.65929 33.0658L17.3035 42.8313C17.4538 44.2658 17.971 45.5774 18.7605 46.5264C19.55 47.4754 20.5591 47.9984 21.6036 48C22.7443 47.9973 23.8386 47.3735 24.6514 46.2626C25.4641 45.1517 25.9303 43.6426 25.9496 42.0596L40.9779 30.7535C41.7379 31.5807 42.6839 32.0331 43.6519 32.0331C44.8048 32.0317 45.9101 31.3954 46.7253 30.264C47.5405 29.1326 47.9989 27.5984 48 25.9984C47.9989 24.3983 47.5405 22.8642 46.7253 21.7328C45.9101 20.6014 44.8048 19.9651 43.6519 19.9636" fill="white"/>
</svg>
