<svg width="18" height="18" viewBox="0 0 18 18" fill="none" xmlns="http://www.w3.org/2000/svg">
<path d="M15.9418 2.46205C15.8658 2.27905 15.7198 2.13305 15.5368 2.05605C15.4448 2.01805 15.3478 1.99805 15.2498 1.99805H10.9998C10.5858 1.99805 10.2498 2.33405 10.2498 2.74805C10.2498 3.16205 10.5858 3.49805 10.9998 3.49805H13.4388L10.2188 6.71805C9.92577 7.01105 9.92577 7.48605 10.2188 7.77905C10.3648 7.92505 10.5568 7.99905 10.7488 7.99905C10.9408 7.99905 11.1328 7.92605 11.2788 7.77905L14.4988 4.55905V6.99805C14.4988 7.41205 14.8348 7.74805 15.2488 7.74805C15.6628 7.74805 15.9988 7.41205 15.9988 6.99805V2.74905C15.9988 2.65105 15.9788 2.55405 15.9408 2.46205H15.9418Z" fill="#97979A"/>
<path d="M4.561 3.5H7C7.414 3.5 7.75 3.164 7.75 2.75C7.75 2.336 7.414 2 7 2H2.75C2.336 2 2 2.336 2 2.75V7C2 7.414 2.336 7.75 2.75 7.75C3.164 7.75 3.5 7.414 3.5 7V4.561L7.884 8.945C8.12 9.181 8.25 9.495 8.25 9.829V16.25C8.25 16.664 8.586 17 9 17C9.414 17 9.75 16.664 9.75 16.25V9.829C9.75 9.094 9.464 8.404 8.944 7.884L4.561 3.5Z" fill="#97979A"/>
</svg>
