<svg width="12" height="12" viewBox="0 0 12 12" fill="none" xmlns="http://www.w3.org/2000/svg">
<path d="M3.87511 11C3.68314 11 3.49117 10.927 3.3452 10.78C3.05225 10.4871 3.05225 10.0122 3.3452 9.71922L7.06455 5.99988L3.3452 2.28053C3.05225 1.98758 3.05225 1.51266 3.3452 1.21971C3.63815 0.926763 4.11307 0.926763 4.40601 1.21971L8.65527 5.46897C8.94822 5.76192 8.94822 6.23683 8.65527 6.52978L4.40601 10.779C4.26004 10.925 4.06807 10.999 3.87611 10.999L3.87511 11Z" fill="black"/>
<path d="M3.87511 11C3.68314 11 3.49117 10.927 3.3452 10.78C3.05225 10.4871 3.05225 10.0122 3.3452 9.71922L7.06455 5.99988L3.3452 2.28053C3.05225 1.98758 3.05225 1.51266 3.3452 1.21971C3.63815 0.926763 4.11307 0.926763 4.40601 1.21971L8.65527 5.46897C8.94822 5.76192 8.94822 6.23683 8.65527 6.52978L4.40601 10.779C4.26004 10.925 4.06807 10.999 3.87611 10.999L3.87511 11Z" fill="#816FEA"/>
</svg>
