<svg width="18" height="18" viewBox="0 0 18 18" fill="none" xmlns="http://www.w3.org/2000/svg">
<path d="M9.75 1.03711V5.07511C11.354 5.38111 12.618 6.64511 12.924 8.24911H16.962C16.605 4.43611 13.563 1.39411 9.75 1.03711Z" fill="#97979A"/>
<path d="M5 8.99911C5 7.05011 6.402 5.42711 8.25 5.07511V1.03711C4.19 1.41711 1 4.84111 1 8.99911C1 10.9351 1.692 12.7121 2.841 14.0981L5.694 11.2451C5.257 10.6041 5 9.83111 5 8.99911Z" fill="#97979A"/>
<path d="M9.00037 13.001C8.16837 13.001 7.39537 12.744 6.75437 12.308L3.90137 15.161C5.28637 16.31 7.06437 17.002 9.00037 17.002C13.1584 17.002 16.5824 13.813 16.9624 9.75195H12.9244C12.5714 11.6 10.9494 13.002 9.00037 13.002V13.001Z" fill="#97979A"/>
</svg>
