<svg width="18" height="18" viewBox="0 0 18 18" fill="none" xmlns="http://www.w3.org/2000/svg">
<path d="M15.3522 6.39816C15.6942 5.91116 15.6702 5.24216 15.2352 4.80716L13.1922 2.76416C12.7572 2.32916 12.0882 2.30516 11.6012 2.64716C8.6662 0.988156 5.6992 1.28916 5.1092 1.37216C4.8082 1.41416 4.5632 1.63316 4.4862 1.92716C4.4092 2.22116 4.5192 2.53216 4.7612 2.71516C6.0802 3.70716 7.3542 4.77816 8.5742 5.88816C8.4702 6.30116 8.5582 6.75316 8.8812 7.07616L10.9242 9.11916C11.1682 9.36316 11.4872 9.48516 11.8082 9.48516C11.9112 9.48516 12.0112 9.45116 12.1122 9.42616C13.2222 10.6462 14.2932 11.9202 15.2852 13.2392C15.4292 13.4302 15.6532 13.5382 15.8852 13.5382C15.9472 13.5382 16.0102 13.5302 16.0732 13.5142C16.3672 13.4382 16.5862 13.1922 16.6282 12.8912C16.7112 12.3002 17.0112 9.33316 15.3532 6.39916L15.3522 6.39816ZM10.1192 6.19116L12.3082 4.00216L13.9972 5.69116L11.8082 7.88016L10.1192 6.19116Z" fill="#97979A"/>
<path d="M9.863 10.18L7.82 8.13705C7.737 8.05405 7.667 7.96405 7.597 7.87305L2.149 13.321C1.811 13.659 1.625 14.108 1.625 14.586C1.625 15.064 1.811 15.513 2.149 15.851C2.487 16.189 2.936 16.375 3.414 16.375C3.892 16.375 4.341 16.189 4.679 15.851L10.127 10.403C10.036 10.332 9.946 10.262 9.863 10.18Z" fill="#97979A"/>
</svg>
