<svg width="64" height="64" viewBox="0 0 64 64" fill="none" xmlns="http://www.w3.org/2000/svg">
<g clip-path="url(#clip0_255_4892)">
<path d="M33.7778 49.7779C33.7778 40.9566 40.9564 33.7779 49.7778 33.7779C52.3449 33.7779 54.7378 34.4428 56.8889 35.5201V23.6943C56.8889 22.0339 56.2418 20.4694 55.0649 19.2961L41.1484 5.37966C39.9715 4.20278 38.4106 3.55566 36.7502 3.55566H16.8889C11.4951 3.55566 7.11108 7.93966 7.11108 13.3334V50.6668C7.11108 56.0606 11.4951 60.4446 16.8889 60.4446H37.9378C35.3778 57.6072 33.7778 53.8917 33.7778 49.7779ZM37.3333 9.16989C37.3653 9.15566 37.3475 9.16633 37.3795 9.15211L51.3244 23.0934C51.3244 23.0934 51.3209 23.1041 51.3173 23.1112H40.8924C38.9369 23.1112 37.3369 21.5112 37.3369 19.5557V9.16989H37.3333ZM20.4444 21.3334H27.5555C29.0275 21.3334 30.2222 22.5281 30.2222 24.0001C30.2222 25.4721 29.0275 26.6668 27.5555 26.6668H20.4444C18.9724 26.6668 17.7778 25.4721 17.7778 24.0001C17.7778 22.5281 18.9724 21.3334 20.4444 21.3334ZM17.7778 34.6668C17.7778 33.1948 18.9724 32.0001 20.4444 32.0001H34.6666C36.1386 32.0001 37.3333 33.1948 37.3333 34.6668C37.3333 36.1388 36.1386 37.3334 34.6666 37.3334H20.4444C18.9724 37.3334 17.7778 36.1388 17.7778 34.6668Z" fill="#97979A" fill-opacity="0.24"/>
<path d="M33.7778 49.7779C33.7778 40.9566 40.9564 33.7779 49.7778 33.7779C52.3449 33.7779 54.7378 34.4428 56.8889 35.5201V23.6943C56.8889 22.0339 56.2418 20.4694 55.0649 19.2961L41.1484 5.37966C39.9715 4.20278 38.4106 3.55566 36.7502 3.55566H16.8889C11.4951 3.55566 7.11108 7.93966 7.11108 13.3334V50.6668C7.11108 56.0606 11.4951 60.4446 16.8889 60.4446H37.9378C35.3778 57.6072 33.7778 53.8917 33.7778 49.7779ZM37.3333 9.16989C37.3653 9.15566 37.3475 9.16633 37.3795 9.15211L51.3244 23.0934C51.3244 23.0934 51.3209 23.1041 51.3173 23.1112H40.8924C38.9369 23.1112 37.3369 21.5112 37.3369 19.5557V9.16989H37.3333ZM20.4444 21.3334H27.5555C29.0275 21.3334 30.2222 22.5281 30.2222 24.0001C30.2222 25.4721 29.0275 26.6668 27.5555 26.6668H20.4444C18.9724 26.6668 17.7778 25.4721 17.7778 24.0001C17.7778 22.5281 18.9724 21.3334 20.4444 21.3334ZM17.7778 34.6668C17.7778 33.1948 18.9724 32.0001 20.4444 32.0001H34.6666C36.1386 32.0001 37.3333 33.1948 37.3333 34.6668C37.3333 36.1388 36.1386 37.3334 34.6666 37.3334H20.4444C18.9724 37.3334 17.7778 36.1388 17.7778 34.6668Z" fill="url(#paint0_linear_255_4892)"/>
<path d="M63.2178 59.4487L58.9333 55.1643C59.8684 53.5785 60.4444 51.7509 60.4444 49.7812C60.4444 43.9003 55.6586 39.1145 49.7778 39.1145C43.8969 39.1145 39.1111 43.9003 39.1111 49.7812C39.1111 55.6621 43.8969 60.4478 49.7778 60.4478C51.7511 60.4478 53.5751 59.8718 55.1609 58.9367L59.4453 63.2212C59.9644 63.7403 60.6471 64.0034 61.3298 64.0034C62.0124 64.0034 62.6951 63.7438 63.2142 63.2212C64.256 62.1794 64.256 60.4905 63.2142 59.4487H63.2178ZM44.4444 49.7776C44.4444 46.8372 46.8373 44.4443 49.7778 44.4443C52.7182 44.4443 55.1111 46.8372 55.1111 49.7776C55.1111 51.2461 54.5138 52.5758 53.5538 53.5394C53.5538 53.5394 53.5466 53.5394 53.5466 53.5465C53.5466 53.5536 53.5466 53.5536 53.5395 53.5536C52.576 54.5172 51.2462 55.1109 49.7778 55.1109C46.8373 55.1109 44.4444 52.7181 44.4444 49.7776Z" fill="#9180F4"/>
</g>
<defs>
<linearGradient id="paint0_linear_255_4892" x1="32" y1="3.55566" x2="32" y2="60.4446" gradientUnits="userSpaceOnUse">
<stop stop-color="white" stop-opacity="0.05"/>
<stop offset="0.798077" stop-opacity="0"/>
</linearGradient>
<clipPath id="clip0_255_4892">
<rect width="64" height="64" fill="white"/>
</clipPath>
</defs>
</svg>
