<svg width="24" height="24" viewBox="0 0 24 24" fill="none" xmlns="http://www.w3.org/2000/svg">
<path d="M21 13H3C2.448 13 2 12.552 2 12C2 11.448 2.448 11 3 11H21C21.552 11 22 11.448 22 12C22 12.552 21.552 13 21 13Z" fill="#58595D"/>
<path d="M21 6H3C2.448 6 2 5.552 2 5C2 4.448 2.448 4 3 4H21C21.552 4 22 4.448 22 5C22 5.552 21.552 6 21 6Z" fill="#58595D"/>
<path d="M11 20H3C2.448 20 2 19.552 2 19C2 18.448 2.448 18 3 18H11C11.552 18 12 18.448 12 19C12 19.552 11.552 20 11 20Z" fill="#58595D"/>
</svg>
