<svg width="12" height="12" viewBox="0 0 12 12" fill="none" xmlns="http://www.w3.org/2000/svg">
<path fill-rule="evenodd" clip-rule="evenodd" d="M7.91705 4.49705C7.76201 4.49498 7.59198 4.49446 7.39759 4.49446H4.60256C4.40766 4.49446 4.23763 4.49498 4.08264 4.49705V3.66144C4.10026 2.61848 4.93173 1.79168 5.9757 1.7782H5.99955C7.04614 1.7782 7.90404 2.62211 7.91705 3.66559V4.49705ZM6.3889 8.29929C6.3889 8.5139 6.21467 8.68807 6.00012 8.68807C5.78551 8.68807 5.61134 8.5139 5.61134 8.29929V7.17443C5.61134 6.95982 5.78551 6.78565 6.00012 6.78565C6.21467 6.78565 6.3889 6.95982 6.3889 7.17443V8.29929ZM9.91895 5.52186C9.7386 5.14967 9.43639 4.84903 9.07042 4.67641C8.95535 4.62043 8.83244 4.5831 8.69461 4.55615V3.66092C8.67589 2.17579 7.45 0.96799 5.9659 1.00065C4.49889 1.01931 3.32997 2.18253 3.30508 3.6547V4.55615C3.16823 4.58259 3.0459 4.61939 2.93186 4.67486C2.56381 4.84851 2.2616 5.14915 2.07966 5.52342C1.90186 5.8982 1.90186 6.33156 1.90186 7.19516V8.29929C1.90186 9.16756 1.90186 9.60351 2.08017 9.97103C2.25798 10.3453 2.55189 10.6397 2.93238 10.8248C3.30405 11 3.73792 11 4.60256 11H7.39764C8.26229 11 8.69564 11 9.07042 10.8232C9.44313 10.6418 9.74425 10.3391 9.91848 9.97311C10.0984 9.60351 10.0984 9.16756 10.0984 8.29929V7.19516C10.0984 6.33156 10.0983 5.8982 9.91895 5.52186Z" fill="#97979A"/>
</svg>
