<svg width="18" height="18" viewBox="0 0 18 18" fill="none" xmlns="http://www.w3.org/2000/svg">
<path d="M16.2667 8.31626L2.0027 5.70726C1.5967 5.63426 1.2047 5.90326 1.1297 6.31026C1.0547 6.71726 1.3247 7.10826 1.7327 7.18326L15.9967 9.79226C16.0417 9.80026 16.0877 9.80426 16.1327 9.80426C16.4877 9.80426 16.8027 9.55126 16.8697 9.18926C16.9447 8.78226 16.6747 8.39126 16.2667 8.31626Z" fill="#97979A"/>
<path d="M10.1349 10.1541C9.66087 9.33406 8.33787 9.33406 7.86387 10.1541L5.04787 15.0321C4.81087 15.4431 4.81087 15.9321 5.04787 16.3431C5.28487 16.7531 5.70987 16.9981 6.18287 16.9981H11.8159C12.2899 16.9981 12.7139 16.7531 12.9509 16.3431C13.1879 15.9321 13.1879 15.4431 12.9509 15.0321L10.1349 10.1541Z" fill="#97979A"/>
<path d="M14 7C15.6569 7 17 5.65685 17 4C17 2.34315 15.6569 1 14 1C12.3431 1 11 2.34315 11 4C11 5.65685 12.3431 7 14 7Z" fill="#97979A"/>
<path d="M3.25 5C4.49264 5 5.5 3.99264 5.5 2.75C5.5 1.50736 4.49264 0.5 3.25 0.5C2.00736 0.5 1 1.50736 1 2.75C1 3.99264 2.00736 5 3.25 5Z" fill="#97979A"/>
</svg>
