<svg width="16" height="16" viewBox="0 0 16 16" fill="none" xmlns="http://www.w3.org/2000/svg">
<g filter="url(#filter0_i_795_6877)">
<path fill-rule="evenodd" clip-rule="evenodd" d="M8.9026 6.00532C8.82053 6.13862 8.91686 6.30959 9.0734 6.30959H13.9311C14.0712 6.30959 14.169 6.16812 14.0987 6.04697C14.0832 6.02033 14.0668 5.99407 14.0493 5.96825L12.0873 3.08959C11.8816 2.78524 11.5833 2.56581 11.2443 2.45458C11.1624 2.4277 11.0753 2.46451 11.0303 2.53803C10.7326 3.02378 9.61646 4.84485 8.9026 6.00532Z" fill="#F6851B"/>
<path fill-rule="evenodd" clip-rule="evenodd" d="M8.9026 6.00532C8.82053 6.13862 8.91686 6.30959 9.0734 6.30959H13.9311C14.0712 6.30959 14.169 6.16812 14.0987 6.04697C14.0832 6.02033 14.0668 5.99407 14.0493 5.96825L12.0873 3.08959C11.8816 2.78524 11.5833 2.56581 11.2443 2.45458C11.1624 2.4277 11.0753 2.46451 11.0303 2.53803C10.7326 3.02378 9.61646 4.84485 8.9026 6.00532Z" fill="url(#paint0_radial_795_6877)" fill-opacity="0.4"/>
<path fill-rule="evenodd" clip-rule="evenodd" d="M8.9026 6.00532C8.82053 6.13862 8.91686 6.30959 9.0734 6.30959H13.9311C14.0712 6.30959 14.169 6.16812 14.0987 6.04697C14.0832 6.02033 14.0668 5.99407 14.0493 5.96825L12.0873 3.08959C11.8816 2.78524 11.5833 2.56581 11.2443 2.45458C11.1624 2.4277 11.0753 2.46451 11.0303 2.53803C10.7326 3.02378 9.61646 4.84485 8.9026 6.00532Z" fill="url(#paint1_linear_795_6877)"/>
</g>
<path d="M11.3131 3.03174C11.4548 3.1154 11.5788 3.22952 11.6734 3.36963L11.6744 3.37158L13.3365 5.81006H9.60898C10.2089 4.83363 10.9517 3.62128 11.3131 3.03174Z" stroke="url(#paint2_linear_795_6877)" stroke-opacity="0.1"/>
<g filter="url(#filter1_i_795_6877)">
<path fill-rule="evenodd" clip-rule="evenodd" d="M7.42934 6.30963C7.4988 6.30963 7.56327 6.27362 7.59967 6.21451L9.77994 2.67451C9.862 2.54126 9.76614 2.36963 9.60967 2.36963H5.27374C4.72974 2.36963 4.22307 2.63896 3.91907 3.0883L1.95174 5.9683C1.93432 5.99394 1.918 6.02 1.90262 6.04641C1.83202 6.16768 1.92984 6.30963 2.07016 6.30963H7.42934Z" fill="#F6851B"/>
<path fill-rule="evenodd" clip-rule="evenodd" d="M7.42934 6.30963C7.4988 6.30963 7.56327 6.27362 7.59967 6.21451L9.77994 2.67451C9.862 2.54126 9.76614 2.36963 9.60967 2.36963H5.27374C4.72974 2.36963 4.22307 2.63896 3.91907 3.0883L1.95174 5.9683C1.93432 5.99394 1.918 6.02 1.90262 6.04641C1.83202 6.16768 1.92984 6.30963 2.07016 6.30963H7.42934Z" fill="url(#paint3_radial_795_6877)" fill-opacity="0.4"/>
<path fill-rule="evenodd" clip-rule="evenodd" d="M7.42934 6.30963C7.4988 6.30963 7.56327 6.27362 7.59967 6.21451L9.77994 2.67451C9.862 2.54126 9.76614 2.36963 9.60967 2.36963H5.27374C4.72974 2.36963 4.22307 2.63896 3.91907 3.0883L1.95174 5.9683C1.93432 5.99394 1.918 6.02 1.90262 6.04641C1.83202 6.16768 1.92984 6.30963 2.07016 6.30963H7.42934Z" fill="url(#paint4_linear_795_6877)"/>
</g>
<path d="M5.27364 2.86963H9.07344L7.26192 5.81006H2.66524L4.33223 3.37061L4.33321 3.36865C4.54418 3.05681 4.89564 2.86966 5.27364 2.86963Z" stroke="url(#paint5_linear_795_6877)" stroke-opacity="0.1"/>
<g filter="url(#filter2_i_795_6877)">
<path fill-rule="evenodd" clip-rule="evenodd" d="M6.75707 7.30957C6.62168 7.30957 6.52541 7.44124 6.56645 7.57024L8.45173 13.4968C8.48693 13.6074 8.6096 13.666 8.71007 13.6078C8.83 13.5384 8.93993 13.4515 9.03487 13.3469L13.9055 7.99424C14.0273 7.86097 14.1223 7.71204 14.1916 7.55437C14.2443 7.4343 14.1485 7.30957 14.0173 7.30957H6.75707Z" fill="#F6851B"/>
<path fill-rule="evenodd" clip-rule="evenodd" d="M6.75707 7.30957C6.62168 7.30957 6.52541 7.44124 6.56645 7.57024L8.45173 13.4968C8.48693 13.6074 8.6096 13.666 8.71007 13.6078C8.83 13.5384 8.93993 13.4515 9.03487 13.3469L13.9055 7.99424C14.0273 7.86097 14.1223 7.71204 14.1916 7.55437C14.2443 7.4343 14.1485 7.30957 14.0173 7.30957H6.75707Z" fill="url(#paint6_radial_795_6877)" fill-opacity="0.4"/>
<path fill-rule="evenodd" clip-rule="evenodd" d="M6.75707 7.30957C6.62168 7.30957 6.52541 7.44124 6.56645 7.57024L8.45173 13.4968C8.48693 13.6074 8.6096 13.666 8.71007 13.6078C8.83 13.5384 8.93993 13.4515 9.03487 13.3469L13.9055 7.99424C14.0273 7.86097 14.1223 7.71204 14.1916 7.55437C14.2443 7.4343 14.1485 7.30957 14.0173 7.30957H6.75707Z" fill="url(#paint7_linear_795_6877)"/>
</g>
<path d="M13.3977 7.80957L8.78053 12.8828L7.16724 7.80957H13.3977Z" stroke="url(#paint8_linear_795_6877)" stroke-opacity="0.1"/>
<g filter="url(#filter3_i_795_6877)">
<path fill-rule="evenodd" clip-rule="evenodd" d="M5.47823 7.44897C5.45183 7.36597 5.37474 7.30957 5.28765 7.30957H1.98275C1.85138 7.30957 1.75553 7.4347 1.80846 7.5549C1.87765 7.7121 1.97228 7.8605 2.09389 7.99357L6.96454 13.3469C7.00647 13.3932 7.05134 13.4362 7.09874 13.4756C7.22934 13.5846 7.38707 13.4486 7.33554 13.2865L5.47823 7.44897Z" fill="#F6851B"/>
<path fill-rule="evenodd" clip-rule="evenodd" d="M5.47823 7.44897C5.45183 7.36597 5.37474 7.30957 5.28765 7.30957H1.98275C1.85138 7.30957 1.75553 7.4347 1.80846 7.5549C1.87765 7.7121 1.97228 7.8605 2.09389 7.99357L6.96454 13.3469C7.00647 13.3932 7.05134 13.4362 7.09874 13.4756C7.22934 13.5846 7.38707 13.4486 7.33554 13.2865L5.47823 7.44897Z" fill="url(#paint9_radial_795_6877)" fill-opacity="0.4"/>
<path fill-rule="evenodd" clip-rule="evenodd" d="M5.47823 7.44897C5.45183 7.36597 5.37474 7.30957 5.28765 7.30957H1.98275C1.85138 7.30957 1.75553 7.4347 1.80846 7.5549C1.87765 7.7121 1.97228 7.8605 2.09389 7.99357L6.96454 13.3469C7.00647 13.3932 7.05134 13.4362 7.09874 13.4756C7.22934 13.5846 7.38707 13.4486 7.33554 13.2865L5.47823 7.44897Z" fill="url(#paint10_linear_795_6877)"/>
</g>
<path d="M5.06804 7.80957L6.39323 11.9766L2.60222 7.80957H5.06804Z" stroke="url(#paint11_linear_795_6877)" stroke-opacity="0.1"/>
<defs>
<filter id="filter0_i_795_6877" x="8.87265" y="2.4458" width="5.24939" height="4.26377" filterUnits="userSpaceOnUse" color-interpolation-filters="sRGB">
<feFlood flood-opacity="0" result="BackgroundImageFix"/>
<feBlend mode="normal" in="SourceGraphic" in2="BackgroundImageFix" result="shape"/>
<feColorMatrix in="SourceAlpha" type="matrix" values="0 0 0 0 0 0 0 0 0 0 0 0 0 0 0 0 0 0 127 0" result="hardAlpha"/>
<feOffset dy="0.4"/>
<feGaussianBlur stdDeviation="0.2"/>
<feComposite in2="hardAlpha" operator="arithmetic" k2="-1" k3="1"/>
<feColorMatrix type="matrix" values="0 0 0 0 1 0 0 0 0 1 0 0 0 0 1 0 0 0 0.05 0"/>
<feBlend mode="normal" in2="shape" result="effect1_innerShadow_795_6877"/>
</filter>
<filter id="filter1_i_795_6877" x="1.8791" y="2.36963" width="7.93085" height="4.33994" filterUnits="userSpaceOnUse" color-interpolation-filters="sRGB">
<feFlood flood-opacity="0" result="BackgroundImageFix"/>
<feBlend mode="normal" in="SourceGraphic" in2="BackgroundImageFix" result="shape"/>
<feColorMatrix in="SourceAlpha" type="matrix" values="0 0 0 0 0 0 0 0 0 0 0 0 0 0 0 0 0 0 127 0" result="hardAlpha"/>
<feOffset dy="0.4"/>
<feGaussianBlur stdDeviation="0.2"/>
<feComposite in2="hardAlpha" operator="arithmetic" k2="-1" k3="1"/>
<feColorMatrix type="matrix" values="0 0 0 0 1 0 0 0 0 1 0 0 0 0 1 0 0 0 0.05 0"/>
<feBlend mode="normal" in2="shape" result="effect1_innerShadow_795_6877"/>
</filter>
<filter id="filter2_i_795_6877" x="6.55689" y="7.30957" width="7.64943" height="6.72129" filterUnits="userSpaceOnUse" color-interpolation-filters="sRGB">
<feFlood flood-opacity="0" result="BackgroundImageFix"/>
<feBlend mode="normal" in="SourceGraphic" in2="BackgroundImageFix" result="shape"/>
<feColorMatrix in="SourceAlpha" type="matrix" values="0 0 0 0 0 0 0 0 0 0 0 0 0 0 0 0 0 0 127 0" result="hardAlpha"/>
<feOffset dy="0.4"/>
<feGaussianBlur stdDeviation="0.2"/>
<feComposite in2="hardAlpha" operator="arithmetic" k2="-1" k3="1"/>
<feColorMatrix type="matrix" values="0 0 0 0 1 0 0 0 0 1 0 0 0 0 1 0 0 0 0.05 0"/>
<feBlend mode="normal" in2="shape" result="effect1_innerShadow_795_6877"/>
</filter>
<filter id="filter3_i_795_6877" x="1.79362" y="7.30957" width="5.55193" height="6.60508" filterUnits="userSpaceOnUse" color-interpolation-filters="sRGB">
<feFlood flood-opacity="0" result="BackgroundImageFix"/>
<feBlend mode="normal" in="SourceGraphic" in2="BackgroundImageFix" result="shape"/>
<feColorMatrix in="SourceAlpha" type="matrix" values="0 0 0 0 0 0 0 0 0 0 0 0 0 0 0 0 0 0 127 0" result="hardAlpha"/>
<feOffset dy="0.4"/>
<feGaussianBlur stdDeviation="0.2"/>
<feComposite in2="hardAlpha" operator="arithmetic" k2="-1" k3="1"/>
<feColorMatrix type="matrix" values="0 0 0 0 1 0 0 0 0 1 0 0 0 0 1 0 0 0 0.05 0"/>
<feBlend mode="normal" in2="shape" result="effect1_innerShadow_795_6877"/>
</filter>
<radialGradient id="paint0_radial_795_6877" cx="0" cy="0" r="1" gradientUnits="userSpaceOnUse" gradientTransform="translate(11.1653 6.30959) rotate(-90) scale(4.03259 17.6347)">
<stop stop-color="#FF7F6E"/>
<stop offset="1" stop-color="#FFB180"/>
</radialGradient>
<linearGradient id="paint1_linear_795_6877" x1="11.4973" y1="2.4458" x2="11.4973" y2="6.30959" gradientUnits="userSpaceOnUse">
<stop stop-color="white" stop-opacity="0.05"/>
<stop offset="0.798077" stop-opacity="0"/>
</linearGradient>
<linearGradient id="paint2_linear_795_6877" x1="13.714" y1="6.30959" x2="8.39248" y2="5.67161" gradientUnits="userSpaceOnUse">
<stop stop-color="#BAD7F7"/>
<stop offset="1" stop-color="#D8ECF8"/>
</linearGradient>
<radialGradient id="paint3_radial_795_6877" cx="0" cy="0" r="1" gradientUnits="userSpaceOnUse" gradientTransform="translate(5.34288 6.30963) rotate(-90) scale(4.11214 26.6427)">
<stop stop-color="#FF7F6E"/>
<stop offset="1" stop-color="#FFB180"/>
</radialGradient>
<linearGradient id="paint4_linear_795_6877" x1="5.84453" y1="2.36963" x2="5.84453" y2="6.30963" gradientUnits="userSpaceOnUse">
<stop stop-color="white" stop-opacity="0.05"/>
<stop offset="0.798077" stop-opacity="0"/>
</linearGradient>
<linearGradient id="paint5_linear_795_6877" x1="9.19342" y1="6.30963" x2="1.28754" y2="4.90536" gradientUnits="userSpaceOnUse">
<stop stop-color="#BAD7F7"/>
<stop offset="1" stop-color="#D8ECF8"/>
</linearGradient>
<radialGradient id="paint6_radial_795_6877" cx="0" cy="0" r="1" gradientUnits="userSpaceOnUse" gradientTransform="translate(9.89776 13.6307) rotate(-90) scale(6.5973 25.6973)">
<stop stop-color="#FF7F6E"/>
<stop offset="1" stop-color="#FFB180"/>
</radialGradient>
<linearGradient id="paint7_linear_795_6877" x1="10.3816" y1="7.30957" x2="10.3816" y2="13.6307" gradientUnits="userSpaceOnUse">
<stop stop-color="white" stop-opacity="0.05"/>
<stop offset="0.798077" stop-opacity="0"/>
</linearGradient>
<linearGradient id="paint8_linear_795_6877" x1="13.6117" y1="13.6307" x2="5.83442" y2="12.8002" gradientUnits="userSpaceOnUse">
<stop stop-color="#BAD7F7"/>
<stop offset="1" stop-color="#D8ECF8"/>
</linearGradient>
<radialGradient id="paint9_radial_795_6877" cx="0" cy="0" r="1" gradientUnits="userSpaceOnUse" gradientTransform="translate(4.21841 13.5148) rotate(-90) scale(6.47636 18.651)">
<stop stop-color="#FF7F6E"/>
<stop offset="1" stop-color="#FFB180"/>
</radialGradient>
<linearGradient id="paint10_linear_795_6877" x1="4.56959" y1="7.30957" x2="4.56959" y2="13.5148" gradientUnits="userSpaceOnUse">
<stop stop-color="white" stop-opacity="0.05"/>
<stop offset="0.798077" stop-opacity="0"/>
</linearGradient>
<linearGradient id="paint11_linear_795_6877" x1="6.91395" y1="13.5148" x2="1.24026" y2="13.0669" gradientUnits="userSpaceOnUse">
<stop stop-color="#BAD7F7"/>
<stop offset="1" stop-color="#D8ECF8"/>
</linearGradient>
</defs>
</svg>
