<svg width="18" height="18" viewBox="0 0 18 18" fill="none" xmlns="http://www.w3.org/2000/svg">
<path d="M6.25 10H3.75C2.7835 10 2 10.7835 2 11.75V14.25C2 15.2165 2.7835 16 3.75 16H6.25C7.2165 16 8 15.2165 8 14.25V11.75C8 10.7835 7.2165 10 6.25 10Z" fill="#97979A"/>
<path d="M14.25 10H11.75C10.7835 10 10 10.7835 10 11.75V14.25C10 15.2165 10.7835 16 11.75 16H14.25C15.2165 16 16 15.2165 16 14.25V11.75C16 10.7835 15.2165 10 14.25 10Z" fill="#97979A"/>
<path d="M16.0052 3.76375L14.2362 1.99475C13.5552 1.31475 12.4452 1.31375 11.7622 1.99475L9.99317 3.76375C9.31217 4.44575 9.31217 5.55575 9.99317 6.23775L11.7622 8.00675C12.1032 8.34675 12.5512 8.51775 12.9992 8.51775C13.4472 8.51775 13.8952 8.34775 14.2362 8.00675L16.0052 6.23775C16.6862 5.55575 16.6862 4.44575 16.0052 3.76375Z" fill="#97979A"/>
<path d="M6.25 2H3.75C2.7835 2 2 2.7835 2 3.75V6.25C2 7.2165 2.7835 8 3.75 8H6.25C7.2165 8 8 7.2165 8 6.25V3.75C8 2.7835 7.2165 2 6.25 2Z" fill="#97979A"/>
</svg>
