<svg width="16" height="16" viewBox="0 0 16 16" fill="none" xmlns="http://www.w3.org/2000/svg">
<path d="M8.00016 14.6663C4.31826 14.6663 1.3335 11.6815 1.3335 7.99967C1.3335 4.31777 4.31826 1.33301 8.00016 1.33301C11.682 1.33301 14.6668 4.31777 14.6668 7.99967C14.6668 11.6815 11.682 14.6663 8.00016 14.6663ZM7.3335 9.99967V11.333H8.66683V9.99967H7.3335ZM8.66683 8.90307C9.63063 8.61621 10.3335 7.72334 10.3335 6.66634C10.3335 5.37767 9.28883 4.33301 8.00016 4.33301C6.86816 4.33301 5.92441 5.13913 5.7117 6.20865L7.01936 6.47019C7.11056 6.01183 7.51503 5.66634 8.00016 5.66634C8.55243 5.66634 9.00016 6.11405 9.00016 6.66634C9.00016 7.21861 8.55243 7.66634 8.00016 7.66634C7.63196 7.66634 7.3335 7.96481 7.3335 8.33301V9.33301H8.66683V8.90307Z" fill="#97979A"/>
</svg>
