<svg width="16" height="16" viewBox="0 0 16 16" fill="none" xmlns="http://www.w3.org/2000/svg">
<path d="M8.00065 14.6663C4.31875 14.6663 1.33398 11.6815 1.33398 7.99967C1.33398 4.31777 4.31875 1.33301 8.00065 1.33301C11.6825 1.33301 14.6673 4.31777 14.6673 7.99967C14.6673 11.6815 11.6825 14.6663 8.00065 14.6663ZM7.33398 9.99967V11.333H8.66732V9.99967H7.33398ZM8.66732 8.90307C9.63112 8.61621 10.334 7.72334 10.334 6.66634C10.334 5.37767 9.28932 4.33301 8.00065 4.33301C6.86865 4.33301 5.9249 5.13913 5.71219 6.20865L7.01985 6.47019C7.11105 6.01183 7.51552 5.66634 8.00065 5.66634C8.55292 5.66634 9.00065 6.11405 9.00065 6.66634C9.00065 7.21861 8.55292 7.66634 8.00065 7.66634C7.63245 7.66634 7.33398 7.96481 7.33398 8.33301V9.33301H8.66732V8.90307Z" fill="#97979A"/>
</svg>
