<svg width="16" height="16" viewBox="0 0 16 16" fill="none" xmlns="http://www.w3.org/2000/svg">
<g clip-path="url(#clip0_83_3021)">
<path d="M8 16C3.588 16 0 12.412 0 8C0 3.588 3.588 0 8 0C11.08 0 13.8333 1.71867 15.1893 4.48533C15.432 4.98133 15.2267 5.58 14.7307 5.82267C14.232 6.06533 13.636 5.85867 13.392 5.364C12.376 3.288 10.3093 2 8 2C4.692 2 2 4.692 2 8C2 11.308 4.692 14 8 14C10.62 14 12.916 12.3267 13.7147 9.83333C13.8827 9.30933 14.444 9.016 14.9707 9.18667C15.4973 9.35467 15.7867 9.91867 15.6173 10.444C14.552 13.7667 11.492 16 8 16Z" fill="#97979A"/>
<path d="M14.333 6H10.333C9.78101 6 9.33301 5.552 9.33301 5C9.33301 4.448 9.78101 4 10.333 4H13.333V1C13.333 0.448 13.781 0 14.333 0C14.885 0 15.333 0.448 15.333 1V5C15.333 5.552 14.885 6 14.333 6Z" fill="#97979A"/>
</g>
<defs>
<clipPath id="clip0_83_3021">
<rect width="16" height="16" fill="white"/>
</clipPath>
</defs>
</svg>
