<svg width="16" height="16" viewBox="0 0 16 16" fill="none" xmlns="http://www.w3.org/2000/svg">
<g clip-path="url(#clip0_1595_11125)">
<path d="M2.6 5.6C3.5 3.5 5.6 2 8 2C11 2 13.4 4.2 13.9 7H15.9C15.4 3.1 12.1 0 8 0C5 0 2.4 1.6 1.1 4.1L0 3V7H4L2.6 5.6Z" fill="#CBCBCC"/>
<path d="M16 9.19141H11.9L13.4 10.5914C12.5 12.6914 10.4 14.1914 7.9 14.1914C5 14.1914 2.5 11.9914 2 9.19141H0C0.5 13.0914 3.9 16.1914 7.9 16.1914C10.9 16.1914 13.5 14.4914 14.9 12.0914L16 13.1914V9.19141Z" fill="#CBCBCC"/>
</g>
<defs>
<clipPath id="clip0_1595_11125">
<rect width="16" height="16" fill="white"/>
</clipPath>
</defs>
</svg>
