<svg width="16" height="16" viewBox="0 0 16 16" fill="none" xmlns="http://www.w3.org/2000/svg">
<g clip-path="url(#clip0_83_3024)">
<path d="M7.99967 10.6663C9.47243 10.6663 10.6663 9.47243 10.6663 7.99967C10.6663 6.52692 9.47243 5.33301 7.99967 5.33301C6.52692 5.33301 5.33301 6.52692 5.33301 7.99967C5.33301 9.47243 6.52692 10.6663 7.99967 10.6663Z" fill="#97979A"/>
<path d="M14.9681 9.21226L14.2361 8.9736C14.2854 8.6536 14.3348 8.3336 14.3348 8.00026C14.3348 7.66693 14.2868 7.3456 14.2361 7.02693L14.9681 6.78826C15.4934 6.6176 15.7801 6.05226 15.6081 5.52826C15.4388 5.00293 14.8734 4.7176 14.3481 4.88693L13.6121 5.12693C13.3108 4.5416 12.9441 3.99626 12.4841 3.5336L12.9254 2.9256C13.2494 2.47893 13.1494 1.8536 12.7028 1.5296C12.2561 1.20426 11.6321 1.3056 11.3054 1.75226L10.8508 2.37893C10.2761 2.08693 9.65875 1.87626 9.00009 1.77093V1.00293C9.00009 0.45093 8.55209 0.00292969 8.00009 0.00292969C7.44809 0.00292969 7.00009 0.45093 7.00009 1.00293V1.77093C6.34142 1.87626 5.72409 2.0856 5.14942 2.37893L4.69475 1.75226C4.36942 1.3056 3.74275 1.20293 3.29742 1.5296C2.85075 1.8536 2.75075 2.47893 3.07475 2.9256L3.51609 3.5336C3.05609 3.99493 2.68942 4.5416 2.38809 5.12693L1.65075 4.88693C1.12542 4.71893 0.56142 5.00293 0.390753 5.52826C0.218753 6.0536 0.506753 6.6176 1.03075 6.78826L1.76275 7.02693C1.71342 7.34693 1.66409 7.66693 1.66409 8.00026C1.66409 8.3336 1.71209 8.65493 1.76275 8.9736L1.03075 9.21226C0.50542 9.38293 0.218753 9.94826 0.390753 10.4723C0.528086 10.8949 0.918753 11.1629 1.34142 11.1629C1.44409 11.1629 1.54809 11.1469 1.65075 11.1136L2.38809 10.8736C2.68942 11.4589 3.05609 12.0043 3.51609 12.4669L3.07475 13.0749C2.75075 13.5216 2.85075 14.1469 3.29742 14.4709C3.47475 14.6003 3.68009 14.6616 3.88275 14.6616C4.19209 14.6616 4.49742 14.5189 4.69342 14.2483L5.14809 13.6216C5.72275 13.9136 6.34009 14.1243 6.99875 14.2296V14.9976C6.99875 15.5496 7.44675 15.9976 7.99875 15.9976C8.55075 15.9976 8.99875 15.5496 8.99875 14.9976V14.2296C9.65742 14.1243 10.2748 13.9149 10.8494 13.6216L11.3041 14.2483C11.5001 14.5176 11.8054 14.6616 12.1148 14.6616C12.3174 14.6616 12.5241 14.6003 12.7001 14.4709C13.1468 14.1469 13.2468 13.5216 12.9228 13.0749L12.4814 12.4669C12.9414 12.0056 13.3081 11.4589 13.6094 10.8736L14.3468 11.1136C14.4494 11.1469 14.5534 11.1629 14.6561 11.1629C15.0774 11.1629 15.4694 10.8949 15.6068 10.4723C15.7788 9.94693 15.4921 9.38293 14.9681 9.21226ZM8.00009 12.3336C5.61075 12.3336 3.66675 10.3896 3.66675 8.00026C3.66675 5.61093 5.61075 3.66693 8.00009 3.66693C10.3894 3.66693 12.3334 5.61093 12.3334 8.00026C12.3334 10.3896 10.3894 12.3336 8.00009 12.3336Z" fill="#97979A"/>
</g>
<defs>
<clipPath id="clip0_83_3024">
<rect width="16" height="16" fill="white"/>
</clipPath>
</defs>
</svg>
