<svg width="18" height="18" viewBox="0 0 18 18" fill="none" xmlns="http://www.w3.org/2000/svg">
<path d="M15.676 6.93387L14.769 6.61387C14.665 6.36287 14.549 6.11487 14.411 5.87487C14.28 5.64787 14.115 5.44987 13.96 5.24387L14.144 4.26087C14.297 3.43487 13.912 2.59687 13.184 2.17687L12.832 1.97387C12.104 1.55387 11.187 1.63787 10.548 2.18487L9.819 2.80887C9.276 2.73587 8.732 2.72887 8.196 2.79887L7.468 2.17587C6.829 1.62987 5.911 1.54387 5.183 1.96487L4.832 2.16787C4.104 2.58687 3.719 3.42487 3.873 4.25187L4.047 5.18487C3.721 5.60787 3.472 6.08487 3.263 6.58387L2.324 6.91487C1.532 7.19487 1 7.94787 1 8.78787V9.19287C1 10.0339 1.532 10.7859 2.324 11.0659L3.23 11.3859C3.334 11.6369 3.449 11.8849 3.588 12.1239C3.719 12.3519 3.884 12.5499 4.04 12.7559L3.856 13.7389C3.703 14.5649 4.088 15.4029 4.816 15.8229L5.168 16.0259C5.477 16.2039 5.819 16.2919 6.16 16.2919C6.623 16.2919 7.084 16.1299 7.452 15.8149L8.176 15.1949C8.454 15.2319 8.732 15.2519 9.009 15.2519C9.275 15.2519 9.54 15.2339 9.803 15.1999L10.532 15.8239C10.9 16.1389 11.361 16.3009 11.825 16.3009C12.166 16.3009 12.509 16.2139 12.817 16.0349L13.168 15.8319C13.896 15.4129 14.281 14.5749 14.127 13.7479L13.953 12.8139C14.279 12.3909 14.527 11.9149 14.736 11.4169L15.676 11.0849C16.468 10.8049 17 10.0519 17 9.21187V8.80687C17 7.96587 16.468 7.21387 15.676 6.93387ZM9 11.9999C7.343 11.9999 6 10.6569 6 8.99987C6 7.34287 7.343 5.99987 9 5.99987C10.657 5.99987 12 7.34287 12 8.99987C12 10.6569 10.657 11.9999 9 11.9999Z" fill="#CBCBCC"/>
</svg>
