<svg width="18" height="18" viewBox="0 0 18 18" fill="none" xmlns="http://www.w3.org/2000/svg">
<path d="M8 16H3.75C2.233 16 1 14.767 1 13.25V4.75C1 3.233 2.233 2 3.75 2H8V3.5H3.75C3.061 3.5 2.5 4.061 2.5 4.75V13.25C2.5 13.939 3.061 14.5 3.75 14.5H8V16Z" fill="#CBCBCC"/>
<path d="M8 16H3.75C2.233 16 1 14.767 1 13.25V4.75C1 3.233 2.233 2 3.75 2H8V3.5H3.75C3.061 3.5 2.5 4.061 2.5 4.75V13.25C2.5 13.939 3.061 14.5 3.75 14.5H8V16Z" fill="#58595D"/>
<path d="M14.25 2H8.25C6.73122 2 5.5 3.23122 5.5 4.75V13.25C5.5 14.7688 6.73122 16 8.25 16H14.25C15.7688 16 17 14.7688 17 13.25V4.75C17 3.23122 15.7688 2 14.25 2Z" fill="#CBCBCC"/>
<path d="M14.25 2H8.25C6.73122 2 5.5 3.23122 5.5 4.75V13.25C5.5 14.7688 6.73122 16 8.25 16H14.25C15.7688 16 17 14.7688 17 13.25V4.75C17 3.23122 15.7688 2 14.25 2Z" fill="#58595D"/>
</svg>
