<svg width="16" height="16" viewBox="0 0 16 16" fill="none" xmlns="http://www.w3.org/2000/svg">
<path fill-rule="evenodd" clip-rule="evenodd" d="M14.7451 3.31435C13.8586 3.02698 13.1586 2.32845 12.872 1.4435C12.774 1.13993 12.2693 1.13993 12.1713 1.4435C11.8846 2.32845 11.1846 3.02698 10.2982 3.31435C10.1464 3.36371 10.0433 3.50519 10.0433 3.66508C10.0433 3.82424 10.1464 3.96571 10.2982 4.01508C11.1832 4.30171 11.8832 5.00392 12.1713 5.89329C12.2199 6.04508 12.3621 6.14824 12.5213 6.14824C12.6812 6.14824 12.8234 6.04508 12.872 5.89329C13.1601 5.00392 13.8601 4.30171 14.7451 4.01508C14.8968 3.96571 15 3.82424 15 3.66508C15 3.50519 14.8968 3.36371 14.7451 3.31435Z" fill="#58595D"/>
<path fill-rule="evenodd" clip-rule="evenodd" d="M14.7451 3.31435C13.8586 3.02698 13.1586 2.32845 12.872 1.4435C12.774 1.13993 12.2693 1.13993 12.1713 1.4435C11.8846 2.32845 11.1846 3.02698 10.2982 3.31435C10.1464 3.36371 10.0433 3.50519 10.0433 3.66508C10.0433 3.82424 10.1464 3.96571 10.2982 4.01508C11.1832 4.30171 11.8832 5.00392 12.1713 5.89329C12.2199 6.04508 12.3621 6.14824 12.5213 6.14824C12.6812 6.14824 12.8234 6.04508 12.872 5.89329C13.1601 5.00392 13.8601 4.30171 14.7451 4.01508C14.8968 3.96571 15 3.82424 15 3.66508C15 3.50519 14.8968 3.36371 14.7451 3.31435Z" fill="url(#paint0_linear_997_7945)"/>
<path fill-rule="evenodd" clip-rule="evenodd" d="M12.1072 8.29556L8.61968 7.16303L7.48789 3.67626C7.39063 3.37416 7.12094 3.17889 6.80263 3.17889C6.48358 3.17889 6.21463 3.37416 6.11663 3.67626L4.99442 7.16082L1.50032 8.29482C1.20116 8.38987 1 8.66545 1 8.98156C1 9.29693 1.20116 9.57251 1.49884 9.66682L4.98337 10.7935L6.11663 14.2861C6.21463 14.5882 6.48358 14.7842 6.80263 14.7842C7.12094 14.7842 7.39063 14.5882 7.48789 14.2861L8.61157 10.8016L12.1049 9.66756C12.4041 9.5725 12.606 9.29693 12.606 8.98156C12.606 8.66545 12.4041 8.38987 12.1072 8.29556Z" fill="#58595D"/>
<path fill-rule="evenodd" clip-rule="evenodd" d="M12.1072 8.29556L8.61968 7.16303L7.48789 3.67626C7.39063 3.37416 7.12094 3.17889 6.80263 3.17889C6.48358 3.17889 6.21463 3.37416 6.11663 3.67626L4.99442 7.16082L1.50032 8.29482C1.20116 8.38987 1 8.66545 1 8.98156C1 9.29693 1.20116 9.57251 1.49884 9.66682L4.98337 10.7935L6.11663 14.2861C6.21463 14.5882 6.48358 14.7842 6.80263 14.7842C7.12094 14.7842 7.39063 14.5882 7.48789 14.2861L8.61157 10.8016L12.1049 9.66756C12.4041 9.5725 12.606 9.29693 12.606 8.98156C12.606 8.66545 12.4041 8.38987 12.1072 8.29556Z" fill="url(#paint1_linear_997_7945)"/>
<defs>
<linearGradient id="paint0_linear_997_7945" x1="12.658" y1="7.01022" x2="10.4678" y2="1.05956" gradientUnits="userSpaceOnUse">
<stop offset="0.1751" stop-color="#5B63D3"/>
<stop offset="1" stop-color="#9180F4"/>
</linearGradient>
<linearGradient id="paint1_linear_997_7945" x1="7.12221" y1="16.8123" x2="1.95006" y2="2.82752" gradientUnits="userSpaceOnUse">
<stop offset="0.1751" stop-color="#5B63D3"/>
<stop offset="1" stop-color="#9180F4"/>
</linearGradient>
</defs>
</svg>
