<svg width="16" height="16" viewBox="0 0 16 16" fill="none" xmlns="http://www.w3.org/2000/svg">
<path fill-rule="evenodd" clip-rule="evenodd" d="M8.47342 9.26888V10.1836C8.47342 10.4451 8.26116 10.6574 7.99963 10.6574C7.73811 10.6574 7.52585 10.4451 7.52585 10.1836V9.26888C6.31046 9.18486 5.21129 8.77425 5.21129 7.9663C5.21129 7.6536 5.37932 7.21835 6.18033 6.92145C6.42606 6.83048 6.6977 6.95619 6.78865 7.20193C6.87961 7.44703 6.75453 7.71993 6.50882 7.81089C6.35594 7.86712 6.26056 7.92271 6.2056 7.9625C6.36984 8.0819 6.82402 8.25878 7.52585 8.31753V5.8564H6.07989C5.81836 5.8564 5.6061 5.64414 5.6061 5.38261C5.6061 5.12109 5.81836 4.90883 6.07989 4.90883H9.9213C10.1828 4.90883 10.3951 5.12109 10.3951 5.38261C10.3951 5.64414 10.1828 5.8564 9.9213 5.8564H8.47342V8.31753C9.17525 8.25878 9.62945 8.0819 9.79369 7.9625C9.73873 7.92271 9.64334 7.86712 9.49047 7.81089C9.24473 7.71993 9.11966 7.44703 9.21062 7.20193C9.30159 6.95619 9.57386 6.83111 9.81896 6.92145C10.62 7.21835 10.788 7.6536 10.788 7.9663C10.788 8.77425 9.68883 9.18486 8.47342 9.26888ZM13.805 6.71742L12.438 3.87156C12.0811 3.14825 11.4715 2.7168 10.8063 2.7168H5.21129C4.53788 2.7168 3.90554 3.16026 3.56063 3.87472L2.1974 6.71363C1.81079 7.49251 2.00599 8.48682 2.66107 9.0781L6.59094 12.6428C7.01606 13.0692 7.49237 13.2828 7.97689 13.2828C8.45699 13.2828 8.94467 13.073 9.39824 12.6536L13.3407 9.07747C13.9933 8.4824 14.1879 7.48809 13.805 6.71742Z" fill="#2BB656"/>
</svg>
