<svg width="29" height="29" viewBox="0 0 29 29" fill="none" xmlns="http://www.w3.org/2000/svg">
<path d="M14.2222 0C6.38045 0 0 6.38045 0 14.2222C0 22.064 6.38045 28.4444 14.2222 28.4444C22.064 28.4444 28.4444 22.064 28.4444 14.2222C28.4444 6.38045 22.064 0 14.2222 0ZM13.8507 22.3413C12.8693 22.3413 12.0729 21.5431 12.0729 20.5636C12.0729 19.584 12.8693 18.7858 13.8507 18.7858C14.832 18.7858 15.6284 19.584 15.6284 20.5636C15.6284 21.5431 14.832 22.3413 13.8507 22.3413ZM16.5689 14.6044C15.7564 15.1716 15.36 15.4773 15.2267 16.2311C15.1147 16.8782 14.5511 17.3333 13.9164 17.3333C13.84 17.3333 13.7618 17.328 13.6836 17.3138C12.9582 17.1858 12.4729 16.496 12.6027 15.7689C12.9333 13.8898 14.1529 13.0382 15.0453 12.416C15.9822 11.7618 16.3076 11.488 16.3076 10.5511C16.3076 9.06311 15.0667 8.67022 14.4107 8.67022C13.6747 8.67022 12.3538 8.90133 11.7849 10.448C11.5307 11.1396 10.7698 11.4933 10.0729 11.2409C9.38133 10.9867 9.02756 10.2204 9.28178 9.53067C10.0924 7.32267 12.0089 6.00356 14.4107 6.00356C16.6222 6.00356 18.9742 7.59644 18.9742 10.5511C18.9742 12.928 17.5858 13.8969 16.5689 14.6044Z" fill="black"/>
<path d="M14.2222 0C6.38045 0 0 6.38045 0 14.2222C0 22.064 6.38045 28.4444 14.2222 28.4444C22.064 28.4444 28.4444 22.064 28.4444 14.2222C28.4444 6.38045 22.064 0 14.2222 0ZM13.8507 22.3413C12.8693 22.3413 12.0729 21.5431 12.0729 20.5636C12.0729 19.584 12.8693 18.7858 13.8507 18.7858C14.832 18.7858 15.6284 19.584 15.6284 20.5636C15.6284 21.5431 14.832 22.3413 13.8507 22.3413ZM16.5689 14.6044C15.7564 15.1716 15.36 15.4773 15.2267 16.2311C15.1147 16.8782 14.5511 17.3333 13.9164 17.3333C13.84 17.3333 13.7618 17.328 13.6836 17.3138C12.9582 17.1858 12.4729 16.496 12.6027 15.7689C12.9333 13.8898 14.1529 13.0382 15.0453 12.416C15.9822 11.7618 16.3076 11.488 16.3076 10.5511C16.3076 9.06311 15.0667 8.67022 14.4107 8.67022C13.6747 8.67022 12.3538 8.90133 11.7849 10.448C11.5307 11.1396 10.7698 11.4933 10.0729 11.2409C9.38133 10.9867 9.02756 10.2204 9.28178 9.53067C10.0924 7.32267 12.0089 6.00356 14.4107 6.00356C16.6222 6.00356 18.9742 7.59644 18.9742 10.5511C18.9742 12.928 17.5858 13.8969 16.5689 14.6044Z" fill="#97979A" fill-opacity="0.64"/>
<path d="M14.2222 0C6.38045 0 0 6.38045 0 14.2222C0 22.064 6.38045 28.4444 14.2222 28.4444C22.064 28.4444 28.4444 22.064 28.4444 14.2222C28.4444 6.38045 22.064 0 14.2222 0ZM13.8507 22.3413C12.8693 22.3413 12.0729 21.5431 12.0729 20.5636C12.0729 19.584 12.8693 18.7858 13.8507 18.7858C14.832 18.7858 15.6284 19.584 15.6284 20.5636C15.6284 21.5431 14.832 22.3413 13.8507 22.3413ZM16.5689 14.6044C15.7564 15.1716 15.36 15.4773 15.2267 16.2311C15.1147 16.8782 14.5511 17.3333 13.9164 17.3333C13.84 17.3333 13.7618 17.328 13.6836 17.3138C12.9582 17.1858 12.4729 16.496 12.6027 15.7689C12.9333 13.8898 14.1529 13.0382 15.0453 12.416C15.9822 11.7618 16.3076 11.488 16.3076 10.5511C16.3076 9.06311 15.0667 8.67022 14.4107 8.67022C13.6747 8.67022 12.3538 8.90133 11.7849 10.448C11.5307 11.1396 10.7698 11.4933 10.0729 11.2409C9.38133 10.9867 9.02756 10.2204 9.28178 9.53067C10.0924 7.32267 12.0089 6.00356 14.4107 6.00356C16.6222 6.00356 18.9742 7.59644 18.9742 10.5511C18.9742 12.928 17.5858 13.8969 16.5689 14.6044Z" fill="url(#paint0_linear_1535_14409)"/>
<defs>
<linearGradient id="paint0_linear_1535_14409" x1="14.2222" y1="0" x2="14.2222" y2="28.4444" gradientUnits="userSpaceOnUse">
<stop stop-color="white" stop-opacity="0.05"/>
<stop offset="0.798077" stop-opacity="0"/>
</linearGradient>
</defs>
</svg>
