<svg width="18" height="18" viewBox="0 0 18 18" fill="none" xmlns="http://www.w3.org/2000/svg">
<path d="M17.4404 11.048C16.4954 9.168 14.6014 8 12.5004 8C12.2174 8 11.9404 8.031 11.6644 8.063C11.2894 8.107 10.8884 8.208 10.4844 8.34C11.9334 9.07 13.1484 10.239 13.9144 11.754C14.3244 12.565 14.3944 13.494 14.1574 14.368C14.3654 14.346 14.5534 14.319 14.7014 14.285C15.3784 14.127 15.8894 13.996 16.3474 13.833C16.8754 13.645 17.2994 13.234 17.5104 12.708C17.7264 12.169 17.7004 11.564 17.4404 11.047V11.048Z" fill="#97979A"/>
<path d="M12.5749 12.432C11.5049 10.315 9.36786 9 6.99986 9C4.63186 9 2.49486 10.315 1.42486 12.432C1.14286 12.99 1.11686 13.646 1.35586 14.234C1.60186 14.841 2.09686 15.313 2.71386 15.526C4.09886 16.006 5.53986 16.25 6.99986 16.25C8.45986 16.25 9.90086 16.006 11.2859 15.526C11.9029 15.312 12.3979 14.841 12.6439 14.234C12.8819 13.647 12.8569 12.99 12.5749 12.432Z" fill="#97979A"/>
<path d="M12.4996 1C11.9246 1 11.3916 1.171 10.9346 1.452C11.5916 2.298 11.9996 3.348 11.9996 4.5C11.9996 5.33 11.7776 6.101 11.4176 6.79C11.7546 6.921 12.1166 7 12.4996 7C14.1536 7 15.4996 5.654 15.4996 4C15.4996 2.346 14.1536 1 12.4996 1Z" fill="#97979A"/>
<path d="M7 8C8.933 8 10.5 6.433 10.5 4.5C10.5 2.567 8.933 1 7 1C5.067 1 3.5 2.567 3.5 4.5C3.5 6.433 5.067 8 7 8Z" fill="#97979A"/>
</svg>
