<svg width="18" height="18" viewBox="0 0 18 18" fill="none" xmlns="http://www.w3.org/2000/svg">
<path d="M4.75 17.5C4.336 17.5 4 17.164 4 16.75V15.25C4 14.836 4.336 14.5 4.75 14.5C5.164 14.5 5.5 14.836 5.5 15.25V16.75C5.5 17.164 5.164 17.5 4.75 17.5Z" fill="#5E6AD2"/>
<path d="M13.25 17.5C12.836 17.5 12.5 17.164 12.5 16.75V15.25C12.5 14.836 12.836 14.5 13.25 14.5C13.664 14.5 14 14.836 14 15.25V16.75C14 17.164 13.664 17.5 13.25 17.5Z" fill="#5E6AD2"/>
<path d="M13.25 2H4.75C3.233 2 2 3.233 2 4.75V13.25C2 14.767 3.233 16 4.75 16H13.25C14.767 16 16 14.767 16 13.25V4.75C16 3.233 14.767 2 13.25 2ZM11.75 9C11.75 9.485 11.613 9.935 11.392 10.331L12.531 11.47C12.824 11.763 12.824 12.238 12.531 12.531C12.385 12.677 12.193 12.751 12.001 12.751C11.809 12.751 11.617 12.678 11.471 12.531L10.332 11.392C9.936 11.613 9.486 11.75 9.001 11.75C8.516 11.75 8.066 11.613 7.67 11.392L6.531 12.531C6.385 12.677 6.193 12.751 6.001 12.751C5.809 12.751 5.617 12.678 5.471 12.531C5.178 12.238 5.178 11.763 5.471 11.47L6.61 10.331C6.389 9.935 6.252 9.485 6.252 9C6.252 8.515 6.389 8.065 6.61 7.669L5.471 6.53C5.178 6.237 5.178 5.762 5.471 5.469C5.764 5.176 6.239 5.176 6.532 5.469L7.671 6.608C8.067 6.387 8.517 6.25 9.002 6.25C9.487 6.25 9.937 6.387 10.333 6.608L11.472 5.469C11.765 5.176 12.24 5.176 12.533 5.469C12.826 5.762 12.826 6.237 12.533 6.53L11.394 7.669C11.615 8.065 11.752 8.515 11.752 9H11.75Z" fill="#5E6AD2"/>
<path d="M9 10.25C9.69036 10.25 10.25 9.69036 10.25 9C10.25 8.30964 9.69036 7.75 9 7.75C8.30964 7.75 7.75 8.30964 7.75 9C7.75 9.69036 8.30964 10.25 9 10.25Z" fill="#5E6AD2"/>
</svg>
