<svg width="64" height="64" viewBox="0 0 64 64" fill="none" xmlns="http://www.w3.org/2000/svg">
<path d="M7.99998 19.5555C6.52798 19.5555 5.33331 18.3609 5.33331 16.8889C5.33331 11.4951 9.71731 7.11108 15.1111 7.11108H45.3333C48.7644 7.11108 51.5555 9.9022 51.5555 13.3333V15.1111C51.5555 16.5831 50.3609 17.7778 48.8889 17.7778C47.4169 17.7778 46.2222 16.5831 46.2222 15.1111V13.3333C46.2222 12.8426 45.824 12.4444 45.3333 12.4444H15.1111C12.6613 12.4444 10.6666 14.4391 10.6666 16.8889C10.6666 18.3609 9.47198 19.5555 7.99998 19.5555Z" fill="black"/>
<path d="M7.99998 19.5555C6.52798 19.5555 5.33331 18.3609 5.33331 16.8889C5.33331 11.4951 9.71731 7.11108 15.1111 7.11108H45.3333C48.7644 7.11108 51.5555 9.9022 51.5555 13.3333V15.1111C51.5555 16.5831 50.3609 17.7778 48.8889 17.7778C47.4169 17.7778 46.2222 16.5831 46.2222 15.1111V13.3333C46.2222 12.8426 45.824 12.4444 45.3333 12.4444H15.1111C12.6613 12.4444 10.6666 14.4391 10.6666 16.8889C10.6666 18.3609 9.47198 19.5555 7.99998 19.5555Z" fill="#97979A" fill-opacity="0.24"/>
<path d="M7.99998 19.5555C6.52798 19.5555 5.33331 18.3609 5.33331 16.8889C5.33331 11.4951 9.71731 7.11108 15.1111 7.11108H45.3333C48.7644 7.11108 51.5555 9.9022 51.5555 13.3333V15.1111C51.5555 16.5831 50.3609 17.7778 48.8889 17.7778C47.4169 17.7778 46.2222 16.5831 46.2222 15.1111V13.3333C46.2222 12.8426 45.824 12.4444 45.3333 12.4444H15.1111C12.6613 12.4444 10.6666 14.4391 10.6666 16.8889C10.6666 18.3609 9.47198 19.5555 7.99998 19.5555Z" fill="url(#paint0_linear_255_7346)"/>
<path d="M52.4444 21.3333H15.1111C12.6613 21.3333 10.6666 19.3387 10.6666 16.8889C10.6666 15.4169 9.47198 14.2222 7.99998 14.2222C6.52798 14.2222 5.33331 15.4169 5.33331 16.8889V35.7262C6.98309 35.0542 8.77865 34.6667 10.6666 34.6667C15.4595 34.6667 19.7938 37.056 22.3858 40.8889H32.8889C37.3013 40.8889 40.8889 44.4765 40.8889 48.8889C40.8889 52.4089 38.6026 55.4062 35.4382 56.4729C35.4133 56.6151 35.36 56.7502 35.328 56.8889H52.4444C55.8755 56.8889 58.6666 54.0978 58.6666 50.6667V27.5556C58.6666 24.1245 55.8755 21.3333 52.4444 21.3333ZM45.3333 43.5556C42.8835 43.5556 40.8889 41.5609 40.8889 39.1111C40.8889 36.6613 42.8835 34.6667 45.3333 34.6667C47.7831 34.6667 49.7778 36.6613 49.7778 39.1111C49.7778 41.5609 47.7831 43.5556 45.3333 43.5556Z" fill="black"/>
<path d="M52.4444 21.3333H15.1111C12.6613 21.3333 10.6666 19.3387 10.6666 16.8889C10.6666 15.4169 9.47198 14.2222 7.99998 14.2222C6.52798 14.2222 5.33331 15.4169 5.33331 16.8889V35.7262C6.98309 35.0542 8.77865 34.6667 10.6666 34.6667C15.4595 34.6667 19.7938 37.056 22.3858 40.8889H32.8889C37.3013 40.8889 40.8889 44.4765 40.8889 48.8889C40.8889 52.4089 38.6026 55.4062 35.4382 56.4729C35.4133 56.6151 35.36 56.7502 35.328 56.8889H52.4444C55.8755 56.8889 58.6666 54.0978 58.6666 50.6667V27.5556C58.6666 24.1245 55.8755 21.3333 52.4444 21.3333ZM45.3333 43.5556C42.8835 43.5556 40.8889 41.5609 40.8889 39.1111C40.8889 36.6613 42.8835 34.6667 45.3333 34.6667C47.7831 34.6667 49.7778 36.6613 49.7778 39.1111C49.7778 41.5609 47.7831 43.5556 45.3333 43.5556Z" fill="#97979A" fill-opacity="0.24"/>
<path d="M52.4444 21.3333H15.1111C12.6613 21.3333 10.6666 19.3387 10.6666 16.8889C10.6666 15.4169 9.47198 14.2222 7.99998 14.2222C6.52798 14.2222 5.33331 15.4169 5.33331 16.8889V35.7262C6.98309 35.0542 8.77865 34.6667 10.6666 34.6667C15.4595 34.6667 19.7938 37.056 22.3858 40.8889H32.8889C37.3013 40.8889 40.8889 44.4765 40.8889 48.8889C40.8889 52.4089 38.6026 55.4062 35.4382 56.4729C35.4133 56.6151 35.36 56.7502 35.328 56.8889H52.4444C55.8755 56.8889 58.6666 54.0978 58.6666 50.6667V27.5556C58.6666 24.1245 55.8755 21.3333 52.4444 21.3333ZM45.3333 43.5556C42.8835 43.5556 40.8889 41.5609 40.8889 39.1111C40.8889 36.6613 42.8835 34.6667 45.3333 34.6667C47.7831 34.6667 49.7778 36.6613 49.7778 39.1111C49.7778 41.5609 47.7831 43.5556 45.3333 43.5556Z" fill="url(#paint1_linear_255_7346)"/>
<path d="M32.8889 46.2222H19.1004C17.9591 42.6276 14.6311 40 10.6667 40C5.7671 40 1.77777 43.9893 1.77777 48.8889C1.77777 53.7884 5.7671 57.7778 10.6667 57.7778C14.6311 57.7778 17.9591 55.1502 19.1004 51.5556H24.8889V55.1111C24.8889 56.5831 26.0835 57.7778 27.5555 57.7778C29.0275 57.7778 30.2222 56.5831 30.2222 55.1111V51.5556H32.8889C34.3609 51.5556 35.5555 50.3609 35.5555 48.8889C35.5555 47.4169 34.3609 46.2222 32.8889 46.2222ZM10.6667 52.4444C8.70755 52.4444 7.1111 50.848 7.1111 48.8889C7.1111 46.9298 8.70755 45.3333 10.6667 45.3333C12.6258 45.3333 14.2222 46.9298 14.2222 48.8889C14.2222 50.848 12.6258 52.4444 10.6667 52.4444Z" fill="#9180F4"/>
<defs>
<linearGradient id="paint0_linear_255_7346" x1="28.4444" y1="7.11108" x2="28.4444" y2="19.5555" gradientUnits="userSpaceOnUse">
<stop stop-color="white" stop-opacity="0.05"/>
<stop offset="0.798077" stop-opacity="0"/>
</linearGradient>
<linearGradient id="paint1_linear_255_7346" x1="32" y1="14.2222" x2="32" y2="56.8889" gradientUnits="userSpaceOnUse">
<stop stop-color="white" stop-opacity="0.05"/>
<stop offset="0.798077" stop-opacity="0"/>
</linearGradient>
</defs>
</svg>
