<svg width="16" height="16" viewBox="0 0 16 16" fill="none" xmlns="http://www.w3.org/2000/svg">
<path d="M1 4C0.448 4 0 3.552 0 3C0 1.34533 1.34667 0 3 0H9.66667C10.2187 0 10.6667 0.448 10.6667 1C10.6667 1.552 10.2187 2 9.66667 2H3C2.44933 2 2 2.448 2 3C2 3.552 1.552 4 1 4Z" fill="#A193F2"/>
<path d="M13.6667 4H3C2.44933 4 2 3.552 2 3C2 2.448 1.552 2 1 2C0.448 2 0 2.448 0 3V11C0 13.0227 1.644 14.6667 3.66667 14.6667H13.6667C14.9533 14.6667 16 13.62 16 12.3333V6.33333C16 5.04667 14.9533 4 13.6667 4ZM10.6667 10.6667C9.93067 10.6667 9.33333 10.0693 9.33333 9.33333C9.33333 8.59733 9.93067 8 10.6667 8C11.4027 8 12 8.59733 12 9.33333C12 10.0693 11.4027 10.6667 10.6667 10.6667Z" fill="#A193F2"/>
</svg>
