<svg width="12" height="12" viewBox="0 0 12 12" fill="none" xmlns="http://www.w3.org/2000/svg">
<path d="M2.24999 10.5C2.05799 10.5 1.86599 10.427 1.71999 10.28C1.42699 9.98699 1.42699 9.51199 1.71999 9.21899L9.21999 1.71999C9.51299 1.42699 9.98799 1.42699 10.281 1.71999C10.574 2.01299 10.574 2.48799 10.281 2.78099L2.78099 10.281C2.63499 10.427 2.44299 10.501 2.25099 10.501L2.24999 10.5Z" fill="#97979A"/>
<path d="M9.74999 10.5C9.55799 10.5 9.36599 10.427 9.21999 10.28L1.71999 2.78002C1.42699 2.48702 1.42699 2.01202 1.71999 1.71902C2.01299 1.42602 2.48799 1.42602 2.78099 1.71902L10.281 9.21902C10.574 9.51202 10.574 9.98702 10.281 10.28C10.135 10.426 9.943 10.5 9.75099 10.5H9.74999Z" fill="#97979A"/>
</svg>
