<svg width="18" height="18" viewBox="0 0 18 18" fill="none" xmlns="http://www.w3.org/2000/svg">
<path d="M18 9.25V8.25C18 7.285 17.215 6.5 16.25 6.5H11.75C10.785 6.5 10 7.285 10 8.25V9.25C10 9.388 10.02 9.52 10.05 9.648C9.433 9.919 9 10.534 9 11.25V12.25C9 12.966 9.433 13.581 10.05 13.852C10.02 13.98 10 14.113 10 14.25V15.25C10 16.215 10.785 17 11.75 17H16.25C17.215 17 18 16.215 18 15.25V14.25C18 13.534 17.567 12.919 16.95 12.648C16.98 12.52 17 12.387 17 12.25V11.25C17 11.112 16.98 10.98 16.95 10.852C17.567 10.581 18 9.966 18 9.25ZM11.5 8.25C11.5 8.112 11.612 8 11.75 8H16.25C16.388 8 16.5 8.112 16.5 8.25V9.25C16.5 9.388 16.388 9.5 16.25 9.5H11.75C11.612 9.5 11.5 9.388 11.5 9.25V8.25ZM16.5 15.25C16.5 15.388 16.388 15.5 16.25 15.5H11.75C11.612 15.5 11.5 15.388 11.5 15.25V14.25C11.5 14.112 11.612 14 11.75 14H16.25C16.388 14 16.5 14.112 16.5 14.25V15.25Z" fill="#97979A"/>
<path d="M14.25 1H3.75C2.231 1 1 2.231 1 3.75V10.25C1 11.769 2.231 13 3.75 13H7.25C7.664 13 8 12.664 8 12.25C8 11.836 7.664 11.5 7.25 11.5H5.424C5.125 10.033 3.967 8.875 2.5 8.576V5.425C3.967 5.126 5.125 3.968 5.424 2.501H12.575C12.925 4.217 14.45 5.51 16.269 5.501C16.674 5.499 17 5.156 17 4.751V3.751C17 2.232 15.769 1.001 14.25 1.001V1Z" fill="#97979A"/>
<path d="M8.5 8.907V8.25C8.5 6.724 9.561 5.449 10.981 5.102C10.48 4.579 9.779 4.25 9 4.25C7.483 4.25 6.25 5.483 6.25 7C6.25 8.161 6.975 9.151 7.994 9.553C8.138 9.319 8.301 9.098 8.5 8.907Z" fill="#97979A"/>
</svg>
