<svg
                                          width="23"
                                          height="22"
                                          viewBox="0 0 23 22"
                                          fill="none"
                                          xmlns="http://www.w3.org/2000/svg"
                                        >
                                          <path
                                            d="M22.4821 11C22.4821 16.7786 17.5821 21.5 11.4911 21.5C5.40007 21.5 0.5 16.7786 0.5 11C0.5 5.22137 5.40007 0.5 11.4911 0.5C17.5821 0.5 22.4821 5.22137 22.4821 11Z"
                                            stroke="#DB576F"
                                          />
                                          <path
                                            d="M12.1001 4.90909L12.017 14.2479H10.892L10.8089 4.90909H12.1001ZM11.4545 18.0959C11.2031 18.0959 10.9858 18.0064 10.8026 17.8274C10.6236 17.6442 10.5341 17.4268 10.5341 17.1754C10.5341 16.9197 10.6236 16.7024 10.8026 16.5234C10.9858 16.3445 11.2031 16.255 11.4545 16.255C11.706 16.255 11.9212 16.3445 12.1001 16.5234C12.2834 16.7024 12.375 16.9197 12.375 17.1754C12.375 17.3416 12.3324 17.495 12.2472 17.6357C12.1662 17.7763 12.0554 17.8892 11.9148 17.9744C11.7784 18.0554 11.625 18.0959 11.4545 18.0959Z"
                                            fill="#DB576F"
                                          />
                                        </svg>