<svg width="20" height="19" viewBox="0 0 20 19" fill="none" xmlns="http://www.w3.org/2000/svg">
<path d="M18.8333 0.57576L11.3281 6.17114L12.7237 2.8736L18.8333 0.57576Z" fill="#E17726" stroke="#E17726" stroke-width="0.25" stroke-linecap="round" stroke-linejoin="round"/>
<path d="M1.5217 0.57576L8.96006 6.22337L7.63126 2.8736L1.5217 0.57576Z" fill="#E27625" stroke="#E27625" stroke-width="0.25" stroke-linecap="round" stroke-linejoin="round"/>
<path d="M16.1312 13.5496L14.1342 16.6233L18.4101 17.8096L19.635 13.6167L16.1312 13.5496Z" fill="#E27625" stroke="#E27625" stroke-width="0.25" stroke-linecap="round" stroke-linejoin="round"/>
<path d="M0.727325 13.6167L1.94478 17.8096L6.21332 16.6233L4.2238 13.5496L0.727325 13.6167Z" fill="#E27625" stroke="#E27625" stroke-width="0.25" stroke-linecap="round" stroke-linejoin="round"/>
<path d="M5.98321 8.35706L4.79544 10.1625L9.02687 10.3565L8.88578 5.76828L5.98321 8.35706Z" fill="#E27625" stroke="#E27625" stroke-width="0.25" stroke-linecap="round" stroke-linejoin="round"/>
<path d="M14.3717 8.35707L11.4246 5.71605L11.3281 10.3565L15.5595 10.1625L14.3717 8.35707Z" fill="#E27625" stroke="#E27625" stroke-width="0.25" stroke-linecap="round" stroke-linejoin="round"/>
<path d="M6.21332 16.6233L8.7744 15.3774L6.56966 13.6466L6.21332 16.6233Z" fill="#E27625" stroke="#E27625" stroke-width="0.25" stroke-linecap="round" stroke-linejoin="round"/>
<path d="M11.5805 15.3774L14.1342 16.6233L13.7853 13.6466L11.5805 15.3774Z" fill="#E27625" stroke="#E27625" stroke-width="0.25" stroke-linecap="round" stroke-linejoin="round"/>
<path d="M14.1342 16.6233L11.5805 15.3775L11.7884 17.0486L11.7661 17.7574L14.1342 16.6233Z" fill="#D5BFB2" stroke="#D5BFB2" stroke-width="0.25" stroke-linecap="round" stroke-linejoin="round"/>
<path d="M6.21326 16.6233L8.5888 17.7574L8.57394 17.0486L8.7744 15.3775L6.21326 16.6233Z" fill="#D5BFB2" stroke="#D5BFB2" stroke-width="0.25" stroke-linecap="round" stroke-linejoin="round"/>
<path d="M8.6334 12.5424L6.51025 11.9158L8.00985 11.2219L8.6334 12.5424Z" fill="#233447" stroke="#233447" stroke-width="0.25" stroke-linecap="round" stroke-linejoin="round"/>
<path d="M11.7215 12.5424L12.3451 11.2219L13.8521 11.9158L11.7215 12.5424Z" fill="#233447" stroke="#233447" stroke-width="0.25" stroke-linecap="round" stroke-linejoin="round"/>
<path d="M6.21334 16.6233L6.58448 13.5496L4.22382 13.6168L6.21334 16.6233Z" fill="#CC6228" stroke="#CC6228" stroke-width="0.25" stroke-linecap="round" stroke-linejoin="round"/>
<path d="M13.7704 13.5496L14.1342 16.6233L16.1311 13.6168L13.7704 13.5496Z" fill="#CC6228" stroke="#CC6228" stroke-width="0.25" stroke-linecap="round" stroke-linejoin="round"/>
<path d="M15.5595 10.1625L11.3281 10.3565L11.7215 12.5424L12.3451 11.2219L13.8521 11.9158L15.5595 10.1625Z" fill="#CC6228" stroke="#CC6228" stroke-width="0.25" stroke-linecap="round" stroke-linejoin="round"/>
<path d="M6.51024 11.9158L8.00978 11.2219L8.63338 12.5424L9.02681 10.3565L4.79541 10.1625L6.51024 11.9158Z" fill="#CC6228" stroke="#CC6228" stroke-width="0.25" stroke-linecap="round" stroke-linejoin="round"/>
<path d="M4.79544 10.1625L6.56967 13.6466L6.5103 11.9158L4.79544 10.1625Z" fill="#E27525" stroke="#E27525" stroke-width="0.25" stroke-linecap="round" stroke-linejoin="round"/>
<path d="M13.8521 11.9158L13.7853 13.6466L15.5596 10.1625L13.8521 11.9158Z" fill="#E27525" stroke="#E27525" stroke-width="0.25" stroke-linecap="round" stroke-linejoin="round"/>
<path d="M9.02688 10.3565L8.63339 12.5425L9.13076 15.1238L9.24214 11.7218L9.02688 10.3565Z" fill="#E27525" stroke="#E27525" stroke-width="0.25" stroke-linecap="round" stroke-linejoin="round"/>
<path d="M11.3281 10.3565L11.1202 11.7144L11.2242 15.1238L11.7216 12.5425L11.3281 10.3565Z" fill="#E27525" stroke="#E27525" stroke-width="0.25" stroke-linecap="round" stroke-linejoin="round"/>
<path d="M11.7216 12.5424L11.2242 15.1238L11.5805 15.3775L13.7853 13.6466L13.8521 11.9158L11.7216 12.5424Z" fill="#F5841F" stroke="#F5841F" stroke-width="0.25" stroke-linecap="round" stroke-linejoin="round"/>
<path d="M6.51025 11.9158L6.56968 13.6466L8.77443 15.3775L9.13077 15.1238L8.6334 12.5424L6.51025 11.9158Z" fill="#F5841F" stroke="#F5841F" stroke-width="0.25" stroke-linecap="round" stroke-linejoin="round"/>
<path d="M11.7661 17.7573L11.7883 17.0486L11.5953 16.8844H8.75954L8.57394 17.0486L8.5888 17.7573L6.21326 16.6233L7.04474 17.3097L8.72983 18.481H11.6176L13.3102 17.3097L14.1342 16.6233L11.7661 17.7573Z" fill="#C0AC9D" stroke="#C0AC9D" stroke-width="0.25" stroke-linecap="round" stroke-linejoin="round"/>
<path d="M11.5805 15.3775L11.2242 15.1238H9.13074L8.7744 15.3775L8.57394 17.0486L8.75954 16.8844H11.5953L11.7883 17.0486L11.5805 15.3775Z" fill="#161616" stroke="#161616" stroke-width="0.25" stroke-linecap="round" stroke-linejoin="round"/>
<path d="M19.1525 6.53669L19.7835 3.44806L18.8333 0.57576L11.5805 5.98466L14.3717 8.35707L18.3136 9.51347L19.1822 8.49139L18.8036 8.21531L19.4049 7.66328L18.9447 7.30516L19.546 6.84259L19.1525 6.53669Z" fill="#763E1A" stroke="#763E1A" stroke-width="0.25" stroke-linecap="round" stroke-linejoin="round"/>
<path d="M0.571442 3.44806L1.20986 6.53669L0.801573 6.84259L1.4103 7.30516L0.950042 7.66328L1.55134 8.21531L1.17274 8.49139L2.0413 9.51347L5.98321 8.35707L8.77441 5.98466L1.52165 0.57576L0.571442 3.44806Z" fill="#763E1A" stroke="#763E1A" stroke-width="0.25" stroke-linecap="round" stroke-linejoin="round"/>
<path d="M18.3137 9.51348L14.3718 8.35707L15.5596 10.1625L13.7853 13.6466L16.1312 13.6167H19.6351L18.3137 9.51348Z" fill="#F5841F" stroke="#F5841F" stroke-width="0.25" stroke-linecap="round" stroke-linejoin="round"/>
<path d="M5.98316 8.35707L2.04129 9.51348L0.727325 13.6167H4.2238L6.56962 13.6466L4.79541 10.1625L5.98316 8.35707Z" fill="#F5841F" stroke="#F5841F" stroke-width="0.25" stroke-linecap="round" stroke-linejoin="round"/>
<path d="M11.3281 10.3565L11.5805 5.98466L12.7237 2.87361H7.63123L8.77443 5.98466L9.02683 10.3565L9.12334 11.7292L9.13077 15.1238H11.2242L11.2316 11.7292L11.3281 10.3565Z" fill="#F5841F" stroke="#F5841F" stroke-width="0.25" stroke-linecap="round" stroke-linejoin="round"/>
</svg>
