<svg width="797" height="797" viewBox="0 0 797 797" fill="none" xmlns="http://www.w3.org/2000/svg">
<path d="M797 398.5C797 618.585 618.585 797 398.5 797C178.415 797 0 618.585 0 398.5C0 178.415 178.415 0 398.5 0C618.585 0 797 178.415 797 398.5Z" fill="#AC91FF"/>
<path d="M761 398.5C761 598.151 599.151 760 399.5 760C199.849 760 38 598.151 38 398.5C38 198.849 199.849 37 399.5 37C599.151 37 761 198.849 761 398.5Z" fill="#6E50CC"/>
<path d="M711 399C711 571.313 571.313 711 399 711C226.687 711 87 571.313 87 399C87 226.687 226.687 87 399 87C571.313 87 711 226.687 711 399Z" fill="#4B2BAA"/>
<path d="M660 398.5C660 542.922 542.922 660 398.5 660C254.078 660 137 542.922 137 398.5C137 254.078 254.078 137 398.5 137C542.922 137 660 254.078 660 398.5Z" fill="#380F93"/>
<path d="M609 398.5C609 514.756 514.756 609 398.5 609C282.244 609 188 514.756 188 398.5C188 282.244 282.244 188 398.5 188C514.756 188 609 282.244 609 398.5Z" fill="#15013C"/>
<path d="M504.806 458.014L399.237 517.014V399.007L504.806 340V458.014Z" fill="#612FFB"/>
<path d="M399.237 399.007L296 340L399.237 281L504.806 340L399.237 399.007Z" fill="#8076FF"/>
<path d="M296 458.014L399.237 517.014V399.007L296 340L296 458.014Z" fill="#B0AEFF"/>
</svg>
