<?xml version="1.0" encoding="utf-8"?>
<!-- Generator: Adobe Illustrator 25.3.1, SVG Export Plug-In . SVG Version: 6.00 Build 0)  -->
<svg version="1.1" id="Layer_1" xmlns="http://www.w3.org/2000/svg" xmlns:xlink="http://www.w3.org/1999/xlink" x="0px" y="0px"
	 viewBox="0 0 512 512" style="enable-background:new 0 0 512 512;" xml:space="preserve">
<style type="text/css">
	.st0{fill:url(#SVGID_1_);}
	.st1{opacity:0.9;}
	.st2{fill:#036B52;}
	.st3{fill:#FFFFFF;}
</style>
<g id="Layer_1_00000157285443230135769090000005977701125599821967_">
</g>
<linearGradient id="SVGID_1_" gradientUnits="userSpaceOnUse" x1="260.1086" y1="379.9609" x2="255.1086" y2="749.9609" gradientTransform="matrix(1 0 0 1 0 -278)">
	<stop  offset="0" style="stop-color:#99D6CE"/>
	<stop  offset="0.9442" style="stop-color:#00A99D"/>
</linearGradient>
<circle class="st0" cx="258" cy="258" r="252.5"/>
<g>
	<g class="st1">
		<path class="st2" d="M224.2,120.9c1-3.8,8.3-17,10.4-13.8c9.8,14.5,17.2,40.3,26.1,54.5c0.9,1,0.6,5.8-0.1,8.7
			c-20.4,83.9-38.9,163.6-59.2,247.5c-0.1,0.5-1.2,1.3-2.2,2.1c-2.1,1.6-5.1,1.3-6.5-0.7c-9.8-14.6-18.1-26.3-27.7-41.8
			c-1-1.7-1.3-6.8-0.6-9.6L224.2,120.9z"/>
		<path class="st2" d="M122.5,371.2c4.5-17.4,8.5-33.7,13-50.3c0.5-1.5,2.7-3,3.9-3c7.3-0.2,14.7,0,22,0c47.7,0,95.8,0,143.6,0
			c3.7,0,5.6-1.5,6.7-6.6c8-32,16.2-63.8,24.3-95.8c0.5-1.7,0.6-3.4,1.4-6c-57.9,0-115.8,0-173.9,0c4.5-17.8,8.7-34.3,13.1-50.9
			c0.5-1.3,2.2-2.3,3.4-2.3c4.5-0.2,8.7,0,13.1,0c58.9,0,117.7,0.6,176.8-0.2c17.5-0.2,36.2,18.1,28.6,53
			c-5.6,26.3-13,51.6-19.2,77.2c-2.2,8.7-4.5,17.8-6.7,26.3c-8.2,30.7-24.9,49.1-47.7,57.8c-2,0.9-4.3,0.9-6.5,0.9
			c-63.6,0-127.2,0-190.9,0C126.1,371.2,124.5,371.2,122.5,371.2z"/>
	</g>
	<g>
		<path class="st3" d="M215,107.1c1-3.8,8.3-17,10.4-13.8c9.8,14.5,17.2,40.3,26.1,54.5c0.9,1,0.6,5.8-0.1,8.7
			C231,240.4,212.5,320.1,192.2,404c-0.1,0.5-1.2,1.3-2.2,2.1c-2.1,1.6-5.1,1.3-6.5-0.7c-9.8-14.6-18.1-26.3-27.7-41.8
			c-1-1.7-1.3-6.8-0.6-9.6L215,107.1z"/>
		<path class="st3" d="M115.8,361.8c4.5-17.4,8.5-33.7,13-50.3c0.5-1.5,2.7-3,3.9-3c7.3-0.2,14.7,0,22,0c47.7,0,95.8,0,143.6,0
			c3.7,0,5.6-1.5,6.7-6.6c8-32,16.2-63.8,24.3-95.8c0.5-1.7,0.6-3.4,1.4-6c-55.5,0-113.2,0-173.9,0c4.5-17.8,8.7-34.3,13.1-50.9
			c0.5-1.3,2.2-2.3,3.4-2.3c4.5-0.2,8.7,0,13.1,0c58.9,0,117.7,0.6,176.8-0.2c17.5-0.2,36.2,18.1,28.6,53
			c-5.6,26.3-13,51.6-19.2,77.2c-2.2,8.7-4.5,17.8-6.7,26.3c-8.2,30.7-24.9,49.1-47.7,57.8c-2,0.9-4.3,0.9-6.5,0.9
			c-63.6,0-127.2,0-190.9,0C119.4,361.8,117.8,361.8,115.8,361.8z"/>
	</g>
</g>
</svg>
