 <svg
           width="30"
                                          height="30"
          viewBox="0 0 12 13"
          fill="none"
          xmlns="http://www.w3.org/2000/svg"
        >
          <path
            d="M6 0.6875C2.78906 0.6875 0.1875 3.3125 0.1875 6.5C0.1875 9.71094 2.78906 12.3125 6 12.3125C9.1875 12.3125 11.8125 9.71094 11.8125 6.5C11.8125 3.3125 9.1875 0.6875 6 0.6875ZM6 11.5625C3.21094 11.5625 0.9375 9.3125 0.9375 6.5C0.9375 3.73438 3.1875 1.4375 6 1.4375C8.76562 1.4375 11.0625 3.71094 11.0625 6.5C11.0625 9.28906 8.78906 11.5625 6 11.5625ZM9.30469 5.14062C9.42188 5.02344 9.42188 4.83594 9.30469 4.74219L9.11719 4.53125C9 4.41406 8.8125 4.41406 8.71875 4.53125L4.875 8.32812L3.25781 6.71094C3.16406 6.59375 2.97656 6.59375 2.85938 6.71094L2.67188 6.89844C2.55469 7.01562 2.55469 7.17969 2.67188 7.29688L4.6875 9.33594C4.78125 9.42969 4.96875 9.42969 5.08594 9.33594L9.30469 5.14062Z"
            fill="#B0DDB8"
          />
        </svg>