<svg width="20" height="15" viewBox="0 0 20 15" fill="none" xmlns="http://www.w3.org/2000/svg">
<path d="M4.09695 2.91407C7.35852 -0.971358 12.6466 -0.971358 15.9081 2.91407L16.3007 3.38169C16.4638 3.57596 16.4638 3.89094 16.3007 4.08521L14.9579 5.68484C14.8763 5.78198 14.7441 5.78198 14.6626 5.68484L14.1224 5.04134C11.8471 2.33077 8.15801 2.33077 5.88265 5.04134L5.30417 5.73048C5.22263 5.82761 5.09043 5.82761 5.00889 5.73048L3.66611 4.13085C3.50303 3.93658 3.50303 3.6216 3.66611 3.42733L4.09695 2.91407ZM18.6851 6.22228L19.8802 7.64595C20.0433 7.84022 20.0433 8.1552 19.8802 8.34947L14.4915 14.769C14.3284 14.9633 14.064 14.9633 13.901 14.769C13.901 14.769 13.901 14.769 13.901 14.769L10.0764 10.2129C10.0356 10.1643 9.96952 10.1643 9.92875 10.2129C9.92875 10.2129 9.92875 10.2129 9.92875 10.2129L6.10426 14.769C5.94118 14.9633 5.67678 14.9633 5.5137 14.769C5.5137 14.769 5.5137 14.769 5.5137 14.769L0.124842 8.34939C-0.0382367 8.15512 -0.0382367 7.84014 0.124842 7.64587L1.31993 6.22219C1.483 6.02792 1.74741 6.02792 1.91048 6.22219L5.73511 10.7784C5.77588 10.827 5.84198 10.827 5.88275 10.7784C5.88275 10.7784 5.88275 10.7784 5.88275 10.7784L9.70719 6.22219C9.87027 6.02792 10.1347 6.02791 10.2978 6.22218C10.2977 6.22218 10.2978 6.22218 10.2978 6.22218L14.1224 10.7784C14.1632 10.827 14.2293 10.827 14.27 10.7784L18.0946 6.22228C18.2577 6.028 18.5221 6.028 18.6851 6.22228Z" fill="#3B99FC"/>
</svg>
