<svg xmlns="http://www.w3.org/2000/svg" viewBox="0 0 100 100" fill="none" class="size-[100px]"><path fill="url(#first-a-home-logo)" d="M52.84 53.438 17.805 67.232c-2.422.958-5.051-.833-5.051-3.44V36.204c0-2.607 2.63-4.398 5.05-3.445l35.038 13.799c3.122 1.232 3.122 5.653 0 6.88Z"></path><path fill="url(#first-b-home-logo)" d="M62.006 64.964 51.75 90.365a3.693 3.693 0 0 1-5.275 1.814l-22-12.698c-2.679-1.545-2.388-5.506.493-6.64l32.26-12.703c3.013-1.189 5.993 1.813 4.777 4.826Z"></path><path fill="url(#first-c-home-logo)" d="m85.15 76.353-15.859 9.154c-3.045 1.758-6.595-1.326-5.275-4.585l7.395-18.313c1.014-2.514 4.306-3.117 6.147-1.128l8.463 9.153a3.708 3.708 0 0 1-.87 5.72Z"></path><path fill="url(#first-d-home-logo)" d="m86.016 29.357-8.464 9.154c-1.84 1.988-5.133 1.391-6.146-1.123L64.01 19.08c-1.314-3.26 2.236-6.35 5.276-4.586l15.859 9.154a3.69 3.69 0 0 1 .87 5.708Z"></path><path fill="url(#first-e-home-logo)" d="M57.222 39.859 24.962 27.16c-2.88-1.134-3.177-5.095-.492-6.645l22-12.698a3.695 3.695 0 0 1 5.275 1.819l10.254 25.401c1.222 3.002-1.758 6.01-4.777 4.82Z"></path><defs><linearGradient id="first-a-home-logo" x1="3.073" x2="140.085" y1="-21.534" y2="111.573" gradientUnits="userSpaceOnUse"><stop stop-color="#8965CB"></stop><stop offset="1" stop-color="#AD93DA"></stop></linearGradient><linearGradient id="first-b-home-logo" x1="-17.488" x2="128.672" y1="-93.24" y2="49.184" gradientUnits="userSpaceOnUse"><stop stop-color="#8965CB"></stop><stop offset="1" stop-color="#AD93DA"></stop></linearGradient><linearGradient id="first-c-home-logo" x1="-113.852" x2="66.294" y1="-165.411" y2="69.185" gradientUnits="userSpaceOnUse"><stop stop-color="#8965CB"></stop><stop offset="1" stop-color="#AD93DA"></stop></linearGradient><linearGradient id="first-d-home-logo" x1="-35.599" x2="144.612" y1="-71.84" y2="162.759" gradientUnits="userSpaceOnUse"><stop stop-color="#8965CB"></stop><stop offset="1" stop-color="#AD93DA"></stop></linearGradient><linearGradient id="first-e-home-logo" x1="28.272" x2="81.98" y1="5.124" y2="77.853" gradientUnits="userSpaceOnUse"><stop stop-color="#8965CB"></stop><stop offset="1" stop-color="#AD93DA"></stop></linearGradient></defs></svg>